<?xml version="1.0" encoding="utf-8" standalone="no"?>
<!DOCTYPE svg PUBLIC "-//W3C//DTD SVG 1.1//EN"
  "http://www.w3.org/Graphics/SVG/1.1/DTD/svg11.dtd">
<!-- Created with matplotlib (http://matplotlib.org/) -->
<svg height="345.6pt" version="1.1" viewBox="0 0 460.8 345.6" width="460.8pt" xmlns="http://www.w3.org/2000/svg" xmlns:xlink="http://www.w3.org/1999/xlink">
 <defs>
  <style type="text/css">
*{stroke-linecap:butt;stroke-linejoin:round;}
  </style>
 </defs>
 <g id="figure_1">
  <g id="patch_1">
   <path d="M 0 345.6 
L 460.8 345.6 
L 460.8 0 
L 0 0 
z
" style="fill:#ffffff;"/>
  </g>
  <g id="axes_1">
   <g id="patch_2">
    <path d="M 36.864 324.864 
L 446.976 324.864 
L 446.976 10.368 
L 36.864 10.368 
z
" style="fill:#ffffff;"/>
   </g>
   <g id="matplotlib.axis_1">
    <g id="xtick_1">
     <g id="line2d_1">
      <path clip-path="url(#p9df9683933)" d="M 55.505455 324.864 
L 55.505455 10.368 
" style="fill:none;stroke:#b0b0b0;stroke-dasharray:2.96,1.28;stroke-dashoffset:0;stroke-width:0.8;"/>
     </g>
     <g id="line2d_2">
      <defs>
       <path d="M 0 0 
L 0 3.5 
" id="m00183a0359" style="stroke:#000000;stroke-width:0.8;"/>
      </defs>
      <g>
       <use style="stroke:#000000;stroke-width:0.8;" x="55.505455" xlink:href="#m00183a0359" y="324.864"/>
      </g>
     </g>
     <g id="text_1">
      <!-- 0 -->
      <defs>
       <path d="M 31.78125 66.40625 
Q 24.171875 66.40625 20.328125 58.90625 
Q 16.5 51.421875 16.5 36.375 
Q 16.5 21.390625 20.328125 13.890625 
Q 24.171875 6.390625 31.78125 6.390625 
Q 39.453125 6.390625 43.28125 13.890625 
Q 47.125 21.390625 47.125 36.375 
Q 47.125 51.421875 43.28125 58.90625 
Q 39.453125 66.40625 31.78125 66.40625 
z
M 31.78125 74.21875 
Q 44.046875 74.21875 50.515625 64.515625 
Q 56.984375 54.828125 56.984375 36.375 
Q 56.984375 17.96875 50.515625 8.265625 
Q 44.046875 -1.421875 31.78125 -1.421875 
Q 19.53125 -1.421875 13.0625 8.265625 
Q 6.59375 17.96875 6.59375 36.375 
Q 6.59375 54.828125 13.0625 64.515625 
Q 19.53125 74.21875 31.78125 74.21875 
z
" id="DejaVuSans-30"/>
      </defs>
      <g transform="translate(52.324205 339.462437)scale(0.1 -0.1)">
       <use xlink:href="#DejaVuSans-30"/>
      </g>
     </g>
    </g>
    <g id="xtick_2">
     <g id="line2d_3">
      <path clip-path="url(#p9df9683933)" d="M 130.145913 324.864 
L 130.145913 10.368 
" style="fill:none;stroke:#b0b0b0;stroke-dasharray:2.96,1.28;stroke-dashoffset:0;stroke-width:0.8;"/>
     </g>
     <g id="line2d_4">
      <g>
       <use style="stroke:#000000;stroke-width:0.8;" x="130.145913" xlink:href="#m00183a0359" y="324.864"/>
      </g>
     </g>
     <g id="text_2">
      <!-- 200 -->
      <defs>
       <path d="M 19.1875 8.296875 
L 53.609375 8.296875 
L 53.609375 0 
L 7.328125 0 
L 7.328125 8.296875 
Q 12.9375 14.109375 22.625 23.890625 
Q 32.328125 33.6875 34.8125 36.53125 
Q 39.546875 41.84375 41.421875 45.53125 
Q 43.3125 49.21875 43.3125 52.78125 
Q 43.3125 58.59375 39.234375 62.25 
Q 35.15625 65.921875 28.609375 65.921875 
Q 23.96875 65.921875 18.8125 64.3125 
Q 13.671875 62.703125 7.8125 59.421875 
L 7.8125 69.390625 
Q 13.765625 71.78125 18.9375 73 
Q 24.125 74.21875 28.421875 74.21875 
Q 39.75 74.21875 46.484375 68.546875 
Q 53.21875 62.890625 53.21875 53.421875 
Q 53.21875 48.921875 51.53125 44.890625 
Q 49.859375 40.875 45.40625 35.40625 
Q 44.1875 33.984375 37.640625 27.21875 
Q 31.109375 20.453125 19.1875 8.296875 
z
" id="DejaVuSans-32"/>
      </defs>
      <g transform="translate(120.602163 339.462437)scale(0.1 -0.1)">
       <use xlink:href="#DejaVuSans-32"/>
       <use x="63.623047" xlink:href="#DejaVuSans-30"/>
       <use x="127.246094" xlink:href="#DejaVuSans-30"/>
      </g>
     </g>
    </g>
    <g id="xtick_3">
     <g id="line2d_5">
      <path clip-path="url(#p9df9683933)" d="M 204.786372 324.864 
L 204.786372 10.368 
" style="fill:none;stroke:#b0b0b0;stroke-dasharray:2.96,1.28;stroke-dashoffset:0;stroke-width:0.8;"/>
     </g>
     <g id="line2d_6">
      <g>
       <use style="stroke:#000000;stroke-width:0.8;" x="204.786372" xlink:href="#m00183a0359" y="324.864"/>
      </g>
     </g>
     <g id="text_3">
      <!-- 400 -->
      <defs>
       <path d="M 37.796875 64.3125 
L 12.890625 25.390625 
L 37.796875 25.390625 
z
M 35.203125 72.90625 
L 47.609375 72.90625 
L 47.609375 25.390625 
L 58.015625 25.390625 
L 58.015625 17.1875 
L 47.609375 17.1875 
L 47.609375 0 
L 37.796875 0 
L 37.796875 17.1875 
L 4.890625 17.1875 
L 4.890625 26.703125 
z
" id="DejaVuSans-34"/>
      </defs>
      <g transform="translate(195.242622 339.462437)scale(0.1 -0.1)">
       <use xlink:href="#DejaVuSans-34"/>
       <use x="63.623047" xlink:href="#DejaVuSans-30"/>
       <use x="127.246094" xlink:href="#DejaVuSans-30"/>
      </g>
     </g>
    </g>
    <g id="xtick_4">
     <g id="line2d_7">
      <path clip-path="url(#p9df9683933)" d="M 279.42683 324.864 
L 279.42683 10.368 
" style="fill:none;stroke:#b0b0b0;stroke-dasharray:2.96,1.28;stroke-dashoffset:0;stroke-width:0.8;"/>
     </g>
     <g id="line2d_8">
      <g>
       <use style="stroke:#000000;stroke-width:0.8;" x="279.42683" xlink:href="#m00183a0359" y="324.864"/>
      </g>
     </g>
     <g id="text_4">
      <!-- 600 -->
      <defs>
       <path d="M 33.015625 40.375 
Q 26.375 40.375 22.484375 35.828125 
Q 18.609375 31.296875 18.609375 23.390625 
Q 18.609375 15.53125 22.484375 10.953125 
Q 26.375 6.390625 33.015625 6.390625 
Q 39.65625 6.390625 43.53125 10.953125 
Q 47.40625 15.53125 47.40625 23.390625 
Q 47.40625 31.296875 43.53125 35.828125 
Q 39.65625 40.375 33.015625 40.375 
z
M 52.59375 71.296875 
L 52.59375 62.3125 
Q 48.875 64.0625 45.09375 64.984375 
Q 41.3125 65.921875 37.59375 65.921875 
Q 27.828125 65.921875 22.671875 59.328125 
Q 17.53125 52.734375 16.796875 39.40625 
Q 19.671875 43.65625 24.015625 45.921875 
Q 28.375 48.1875 33.59375 48.1875 
Q 44.578125 48.1875 50.953125 41.515625 
Q 57.328125 34.859375 57.328125 23.390625 
Q 57.328125 12.15625 50.6875 5.359375 
Q 44.046875 -1.421875 33.015625 -1.421875 
Q 20.359375 -1.421875 13.671875 8.265625 
Q 6.984375 17.96875 6.984375 36.375 
Q 6.984375 53.65625 15.1875 63.9375 
Q 23.390625 74.21875 37.203125 74.21875 
Q 40.921875 74.21875 44.703125 73.484375 
Q 48.484375 72.75 52.59375 71.296875 
z
" id="DejaVuSans-36"/>
      </defs>
      <g transform="translate(269.88308 339.462437)scale(0.1 -0.1)">
       <use xlink:href="#DejaVuSans-36"/>
       <use x="63.623047" xlink:href="#DejaVuSans-30"/>
       <use x="127.246094" xlink:href="#DejaVuSans-30"/>
      </g>
     </g>
    </g>
    <g id="xtick_5">
     <g id="line2d_9">
      <path clip-path="url(#p9df9683933)" d="M 354.067289 324.864 
L 354.067289 10.368 
" style="fill:none;stroke:#b0b0b0;stroke-dasharray:2.96,1.28;stroke-dashoffset:0;stroke-width:0.8;"/>
     </g>
     <g id="line2d_10">
      <g>
       <use style="stroke:#000000;stroke-width:0.8;" x="354.067289" xlink:href="#m00183a0359" y="324.864"/>
      </g>
     </g>
     <g id="text_5">
      <!-- 800 -->
      <defs>
       <path d="M 31.78125 34.625 
Q 24.75 34.625 20.71875 30.859375 
Q 16.703125 27.09375 16.703125 20.515625 
Q 16.703125 13.921875 20.71875 10.15625 
Q 24.75 6.390625 31.78125 6.390625 
Q 38.8125 6.390625 42.859375 10.171875 
Q 46.921875 13.96875 46.921875 20.515625 
Q 46.921875 27.09375 42.890625 30.859375 
Q 38.875 34.625 31.78125 34.625 
z
M 21.921875 38.8125 
Q 15.578125 40.375 12.03125 44.71875 
Q 8.5 49.078125 8.5 55.328125 
Q 8.5 64.0625 14.71875 69.140625 
Q 20.953125 74.21875 31.78125 74.21875 
Q 42.671875 74.21875 48.875 69.140625 
Q 55.078125 64.0625 55.078125 55.328125 
Q 55.078125 49.078125 51.53125 44.71875 
Q 48 40.375 41.703125 38.8125 
Q 48.828125 37.15625 52.796875 32.3125 
Q 56.78125 27.484375 56.78125 20.515625 
Q 56.78125 9.90625 50.3125 4.234375 
Q 43.84375 -1.421875 31.78125 -1.421875 
Q 19.734375 -1.421875 13.25 4.234375 
Q 6.78125 9.90625 6.78125 20.515625 
Q 6.78125 27.484375 10.78125 32.3125 
Q 14.796875 37.15625 21.921875 38.8125 
z
M 18.3125 54.390625 
Q 18.3125 48.734375 21.84375 45.5625 
Q 25.390625 42.390625 31.78125 42.390625 
Q 38.140625 42.390625 41.71875 45.5625 
Q 45.3125 48.734375 45.3125 54.390625 
Q 45.3125 60.0625 41.71875 63.234375 
Q 38.140625 66.40625 31.78125 66.40625 
Q 25.390625 66.40625 21.84375 63.234375 
Q 18.3125 60.0625 18.3125 54.390625 
z
" id="DejaVuSans-38"/>
      </defs>
      <g transform="translate(344.523539 339.462437)scale(0.1 -0.1)">
       <use xlink:href="#DejaVuSans-38"/>
       <use x="63.623047" xlink:href="#DejaVuSans-30"/>
       <use x="127.246094" xlink:href="#DejaVuSans-30"/>
      </g>
     </g>
    </g>
    <g id="xtick_6">
     <g id="line2d_11">
      <path clip-path="url(#p9df9683933)" d="M 428.707748 324.864 
L 428.707748 10.368 
" style="fill:none;stroke:#b0b0b0;stroke-dasharray:2.96,1.28;stroke-dashoffset:0;stroke-width:0.8;"/>
     </g>
     <g id="line2d_12">
      <g>
       <use style="stroke:#000000;stroke-width:0.8;" x="428.707748" xlink:href="#m00183a0359" y="324.864"/>
      </g>
     </g>
     <g id="text_6">
      <!-- 1000 -->
      <defs>
       <path d="M 12.40625 8.296875 
L 28.515625 8.296875 
L 28.515625 63.921875 
L 10.984375 60.40625 
L 10.984375 69.390625 
L 28.421875 72.90625 
L 38.28125 72.90625 
L 38.28125 8.296875 
L 54.390625 8.296875 
L 54.390625 0 
L 12.40625 0 
z
" id="DejaVuSans-31"/>
      </defs>
      <g transform="translate(415.982748 339.462437)scale(0.1 -0.1)">
       <use xlink:href="#DejaVuSans-31"/>
       <use x="63.623047" xlink:href="#DejaVuSans-30"/>
       <use x="127.246094" xlink:href="#DejaVuSans-30"/>
       <use x="190.869141" xlink:href="#DejaVuSans-30"/>
      </g>
     </g>
    </g>
   </g>
   <g id="matplotlib.axis_2">
    <g id="ytick_1">
     <g id="line2d_13">
      <path clip-path="url(#p9df9683933)" d="M 36.864 312.69663 
L 446.976 312.69663 
" style="fill:none;stroke:#b0b0b0;stroke-dasharray:2.96,1.28;stroke-dashoffset:0;stroke-width:0.8;"/>
     </g>
     <g id="line2d_14">
      <defs>
       <path d="M 0 0 
L -3.5 0 
" id="m7f077f8164" style="stroke:#000000;stroke-width:0.8;"/>
      </defs>
      <g>
       <use style="stroke:#000000;stroke-width:0.8;" x="36.864" xlink:href="#m7f077f8164" y="312.69663"/>
      </g>
     </g>
     <g id="text_7">
      <!-- 990 -->
      <defs>
       <path d="M 10.984375 1.515625 
L 10.984375 10.5 
Q 14.703125 8.734375 18.5 7.8125 
Q 22.3125 6.890625 25.984375 6.890625 
Q 35.75 6.890625 40.890625 13.453125 
Q 46.046875 20.015625 46.78125 33.40625 
Q 43.953125 29.203125 39.59375 26.953125 
Q 35.25 24.703125 29.984375 24.703125 
Q 19.046875 24.703125 12.671875 31.3125 
Q 6.296875 37.9375 6.296875 49.421875 
Q 6.296875 60.640625 12.9375 67.421875 
Q 19.578125 74.21875 30.609375 74.21875 
Q 43.265625 74.21875 49.921875 64.515625 
Q 56.59375 54.828125 56.59375 36.375 
Q 56.59375 19.140625 48.40625 8.859375 
Q 40.234375 -1.421875 26.421875 -1.421875 
Q 22.703125 -1.421875 18.890625 -0.6875 
Q 15.09375 0.046875 10.984375 1.515625 
z
M 30.609375 32.421875 
Q 37.25 32.421875 41.125 36.953125 
Q 45.015625 41.5 45.015625 49.421875 
Q 45.015625 57.28125 41.125 61.84375 
Q 37.25 66.40625 30.609375 66.40625 
Q 23.96875 66.40625 20.09375 61.84375 
Q 16.21875 57.28125 16.21875 49.421875 
Q 16.21875 41.5 20.09375 36.953125 
Q 23.96875 32.421875 30.609375 32.421875 
z
" id="DejaVuSans-39"/>
      </defs>
      <g transform="translate(10.7765 316.495848)scale(0.1 -0.1)">
       <use xlink:href="#DejaVuSans-39"/>
       <use x="63.623047" xlink:href="#DejaVuSans-39"/>
       <use x="127.246094" xlink:href="#DejaVuSans-30"/>
      </g>
     </g>
    </g>
    <g id="ytick_2">
     <g id="line2d_15">
      <path clip-path="url(#p9df9683933)" d="M 36.864 250.827746 
L 446.976 250.827746 
" style="fill:none;stroke:#b0b0b0;stroke-dasharray:2.96,1.28;stroke-dashoffset:0;stroke-width:0.8;"/>
     </g>
     <g id="line2d_16">
      <g>
       <use style="stroke:#000000;stroke-width:0.8;" x="36.864" xlink:href="#m7f077f8164" y="250.827746"/>
      </g>
     </g>
     <g id="text_8">
      <!-- 1000 -->
      <g transform="translate(4.414 254.626964)scale(0.1 -0.1)">
       <use xlink:href="#DejaVuSans-31"/>
       <use x="63.623047" xlink:href="#DejaVuSans-30"/>
       <use x="127.246094" xlink:href="#DejaVuSans-30"/>
       <use x="190.869141" xlink:href="#DejaVuSans-30"/>
      </g>
     </g>
    </g>
    <g id="ytick_3">
     <g id="line2d_17">
      <path clip-path="url(#p9df9683933)" d="M 36.864 188.958862 
L 446.976 188.958862 
" style="fill:none;stroke:#b0b0b0;stroke-dasharray:2.96,1.28;stroke-dashoffset:0;stroke-width:0.8;"/>
     </g>
     <g id="line2d_18">
      <g>
       <use style="stroke:#000000;stroke-width:0.8;" x="36.864" xlink:href="#m7f077f8164" y="188.958862"/>
      </g>
     </g>
     <g id="text_9">
      <!-- 1010 -->
      <g transform="translate(4.414 192.758081)scale(0.1 -0.1)">
       <use xlink:href="#DejaVuSans-31"/>
       <use x="63.623047" xlink:href="#DejaVuSans-30"/>
       <use x="127.246094" xlink:href="#DejaVuSans-31"/>
       <use x="190.869141" xlink:href="#DejaVuSans-30"/>
      </g>
     </g>
    </g>
    <g id="ytick_4">
     <g id="line2d_19">
      <path clip-path="url(#p9df9683933)" d="M 36.864 127.089978 
L 446.976 127.089978 
" style="fill:none;stroke:#b0b0b0;stroke-dasharray:2.96,1.28;stroke-dashoffset:0;stroke-width:0.8;"/>
     </g>
     <g id="line2d_20">
      <g>
       <use style="stroke:#000000;stroke-width:0.8;" x="36.864" xlink:href="#m7f077f8164" y="127.089978"/>
      </g>
     </g>
     <g id="text_10">
      <!-- 1020 -->
      <g transform="translate(4.414 130.889197)scale(0.1 -0.1)">
       <use xlink:href="#DejaVuSans-31"/>
       <use x="63.623047" xlink:href="#DejaVuSans-30"/>
       <use x="127.246094" xlink:href="#DejaVuSans-32"/>
       <use x="190.869141" xlink:href="#DejaVuSans-30"/>
      </g>
     </g>
    </g>
    <g id="ytick_5">
     <g id="line2d_21">
      <path clip-path="url(#p9df9683933)" d="M 36.864 65.221094 
L 446.976 65.221094 
" style="fill:none;stroke:#b0b0b0;stroke-dasharray:2.96,1.28;stroke-dashoffset:0;stroke-width:0.8;"/>
     </g>
     <g id="line2d_22">
      <g>
       <use style="stroke:#000000;stroke-width:0.8;" x="36.864" xlink:href="#m7f077f8164" y="65.221094"/>
      </g>
     </g>
     <g id="text_11">
      <!-- 1030 -->
      <defs>
       <path d="M 40.578125 39.3125 
Q 47.65625 37.796875 51.625 33 
Q 55.609375 28.21875 55.609375 21.1875 
Q 55.609375 10.40625 48.1875 4.484375 
Q 40.765625 -1.421875 27.09375 -1.421875 
Q 22.515625 -1.421875 17.65625 -0.515625 
Q 12.796875 0.390625 7.625 2.203125 
L 7.625 11.71875 
Q 11.71875 9.328125 16.59375 8.109375 
Q 21.484375 6.890625 26.8125 6.890625 
Q 36.078125 6.890625 40.9375 10.546875 
Q 45.796875 14.203125 45.796875 21.1875 
Q 45.796875 27.640625 41.28125 31.265625 
Q 36.765625 34.90625 28.71875 34.90625 
L 20.21875 34.90625 
L 20.21875 43.015625 
L 29.109375 43.015625 
Q 36.375 43.015625 40.234375 45.921875 
Q 44.09375 48.828125 44.09375 54.296875 
Q 44.09375 59.90625 40.109375 62.90625 
Q 36.140625 65.921875 28.71875 65.921875 
Q 24.65625 65.921875 20.015625 65.03125 
Q 15.375 64.15625 9.8125 62.3125 
L 9.8125 71.09375 
Q 15.4375 72.65625 20.34375 73.4375 
Q 25.25 74.21875 29.59375 74.21875 
Q 40.828125 74.21875 47.359375 69.109375 
Q 53.90625 64.015625 53.90625 55.328125 
Q 53.90625 49.265625 50.4375 45.09375 
Q 46.96875 40.921875 40.578125 39.3125 
z
" id="DejaVuSans-33"/>
      </defs>
      <g transform="translate(4.414 69.020313)scale(0.1 -0.1)">
       <use xlink:href="#DejaVuSans-31"/>
       <use x="63.623047" xlink:href="#DejaVuSans-30"/>
       <use x="127.246094" xlink:href="#DejaVuSans-33"/>
       <use x="190.869141" xlink:href="#DejaVuSans-30"/>
      </g>
     </g>
    </g>
   </g>
   <g id="line2d_23">
    <path clip-path="url(#p9df9683933)" d="M 55.505455 259.158658 
L 55.878657 261.362743 
L 56.251859 253.187613 
L 56.998264 241.722731 
L 57.371466 248.587899 
L 57.744668 249.386748 
L 58.117871 256.698061 
L 58.491073 254.085573 
L 58.864275 262.357238 
L 59.237477 262.881098 
L 59.61068 260.150786 
L 60.357084 266.011091 
L 60.730287 264.382722 
L 61.103489 258.48819 
L 61.476691 264.331682 
L 61.849894 263.699561 
L 62.223096 258.448841 
L 62.596298 256.672164 
L 62.9695 251.604154 
L 63.342703 262.311184 
L 63.715905 256.568954 
L 64.089107 258.196189 
L 64.46231 261.750746 
L 64.835512 255.539577 
L 65.208714 269.448564 
L 65.955119 258.950669 
L 66.328321 270.093842 
L 66.701523 257.680373 
L 67.074726 259.643687 
L 67.82113 258.736155 
L 68.194333 266.494483 
L 68.567535 277.092378 
L 68.940737 274.949779 
L 69.313939 263.962966 
L 69.687142 277.174246 
L 70.060344 282.626341 
L 70.433546 283.469954 
L 70.806749 275.633799 
L 71.179951 264.472489 
L 71.553153 267.556538 
L 71.926355 253.43801 
L 72.299558 247.411106 
L 73.045962 259.183309 
L 73.419165 263.74658 
L 73.792367 265.838731 
L 74.165569 257.978609 
L 74.538771 259.14109 
L 74.911974 250.791652 
L 75.285176 250.064007 
L 75.658378 254.410508 
L 76.031581 245.118769 
L 76.404783 244.431212 
L 76.777985 248.274955 
L 77.151188 237.551878 
L 77.52439 241.188685 
L 77.897592 239.620823 
L 79.017199 256.58957 
L 79.390401 251.133536 
L 79.763604 259.112177 
L 80.136806 260.546757 
L 80.510008 246.420634 
L 80.88321 248.608086 
L 81.629615 262.39401 
L 82.002817 256.81962 
L 82.37602 258.689542 
L 82.749222 259.540491 
L 83.122424 265.984599 
L 83.495627 265.751191 
L 83.868829 270.951487 
L 84.242031 271.824306 
L 84.615233 270.179673 
L 84.988436 277.015152 
L 85.361638 262.810709 
L 85.73484 256.710577 
L 86.108043 263.952516 
L 86.481245 259.42253 
L 86.854447 261.349025 
L 87.227649 252.268982 
L 87.600852 257.183059 
L 87.974054 250.518198 
L 88.347256 252.583891 
L 88.720459 251.692686 
L 89.093661 263.66123 
L 89.466863 263.916278 
L 89.840066 257.315735 
L 90.213268 268.939348 
L 90.58647 262.433941 
L 90.959672 266.027915 
L 91.332875 263.035855 
L 91.706077 254.282583 
L 92.079279 256.090306 
L 92.452482 259.720873 
L 92.825684 258.754513 
L 93.198886 263.815383 
L 93.572088 261.151544 
L 93.945291 265.77893 
L 94.318493 265.687872 
L 94.691695 263.05137 
L 95.064898 249.47575 
L 95.4381 259.425763 
L 95.811302 264.492284 
L 96.184505 266.056832 
L 96.930909 270.793097 
L 97.304111 266.366127 
L 97.677314 271.528721 
L 98.050516 279.695568 
L 98.423718 280.016338 
L 98.796921 280.026186 
L 99.170123 281.665412 
L 99.916527 286.681432 
L 100.28973 295.076073 
L 100.662932 288.878028 
L 101.036134 291.770157 
L 101.409337 290.875552 
L 101.782539 302.496555 
L 102.155741 301.376623 
L 102.528943 294.126628 
L 102.902146 296.529053 
L 103.275348 301.701947 
L 103.64855 310.100619 
L 104.021753 306.446804 
L 104.394955 306.108508 
L 104.768157 310.568727 
L 105.14136 297.096376 
L 105.514562 299.367406 
L 106.260966 284.72666 
L 106.634169 298.788709 
L 107.007371 295.129924 
L 107.380573 287.648772 
L 107.753776 292.964591 
L 108.126978 279.985085 
L 108.50018 278.050114 
L 108.873382 277.234895 
L 109.246585 275.573192 
L 109.619787 274.708601 
L 109.992989 277.356615 
L 110.366192 271.101597 
L 110.739394 278.431912 
L 111.112596 274.021151 
L 111.485799 282.846603 
L 111.859001 268.875058 
L 112.232203 275.129686 
L 112.605405 276.657473 
L 112.978608 266.801872 
L 113.35181 269.816917 
L 113.725012 255.450507 
L 114.471417 269.096372 
L 114.844619 275.793776 
L 115.217821 276.109402 
L 115.591024 273.137248 
L 115.964226 278.44729 
L 116.337428 286.905263 
L 116.710631 290.244229 
L 117.083833 280.766962 
L 117.457035 282.315662 
L 117.830238 282.047064 
L 118.20344 281.920124 
L 118.949844 271.472047 
L 119.323047 273.366305 
L 119.696249 274.167802 
L 120.815856 257.047946 
L 121.189058 268.448752 
L 121.56226 269.458487 
L 122.308665 254.452842 
L 122.681867 253.796447 
L 123.05507 251.553382 
L 123.428272 251.692892 
L 124.174676 241.516984 
L 124.547879 252.398122 
L 124.921081 252.120154 
L 126.040688 231.919048 
L 126.41389 242.782706 
L 126.787093 234.620408 
L 127.533497 247.011613 
L 127.906699 238.675293 
L 128.279902 240.715637 
L 128.653104 245.977366 
L 129.026306 243.432405 
L 129.399509 240.014816 
L 129.772711 242.894583 
L 130.519115 240.444685 
L 130.892318 232.129217 
L 131.26552 227.703418 
L 131.638722 230.883957 
L 132.011925 240.635223 
L 132.385127 234.406434 
L 132.758329 234.860733 
L 133.131532 241.356493 
L 133.877936 230.417317 
L 134.251138 238.051241 
L 134.624341 235.314077 
L 134.997543 243.745488 
L 135.370745 240.793263 
L 135.743948 242.676011 
L 136.11715 246.278214 
L 136.490352 244.589915 
L 136.863554 243.832236 
L 137.236757 237.984186 
L 137.609959 229.966828 
L 137.983161 237.492432 
L 138.356364 242.125345 
L 138.729566 232.86224 
L 139.102768 236.947346 
L 139.475971 227.493625 
L 139.849173 226.722658 
L 140.222375 219.170784 
L 140.595577 223.719891 
L 140.96878 219.445775 
L 141.341982 217.908918 
L 141.715184 217.111028 
L 142.088387 216.003273 
L 142.461589 209.910254 
L 143.581196 202.006657 
L 143.954398 209.998852 
L 144.700803 196.590516 
L 145.074005 201.043935 
L 145.447207 189.129399 
L 145.82041 188.939615 
L 146.193612 195.821694 
L 146.940016 181.59818 
L 147.313219 170.108988 
L 147.686421 171.310583 
L 148.059623 169.157027 
L 148.432826 172.255173 
L 148.806028 172.951814 
L 149.17923 179.648043 
L 149.552432 172.063727 
L 151.045242 206.545243 
L 151.418444 205.495019 
L 151.791646 210.305549 
L 152.164848 216.683983 
L 152.538051 225.989282 
L 152.911253 227.939162 
L 153.284455 240.091364 
L 153.657658 240.710186 
L 154.03086 249.724534 
L 154.777265 251.354255 
L 155.150467 264.860511 
L 155.523669 263.211965 
L 155.896871 265.989884 
L 156.270074 271.577563 
L 156.643276 265.392785 
L 157.016478 274.901458 
L 157.389681 269.125913 
L 157.762883 257.085912 
L 158.136085 256.878237 
L 158.509287 253.928502 
L 158.88249 260.135892 
L 159.255692 259.436201 
L 159.628894 264.385018 
L 160.002097 272.815801 
L 160.375299 258.708783 
L 160.748501 260.151744 
L 161.121704 274.284722 
L 161.494906 270.449324 
L 161.868108 273.218754 
L 162.24131 263.890767 
L 162.614513 273.758905 
L 162.987715 266.188648 
L 163.360917 275.775783 
L 163.73412 267.587133 
L 164.107322 273.944478 
L 164.480524 276.942188 
L 164.853726 263.424174 
L 165.226929 257.372403 
L 165.600131 260.831935 
L 165.973333 270.122084 
L 166.346536 263.542432 
L 166.719738 252.622293 
L 167.09294 256.660649 
L 167.466143 256.428087 
L 167.839345 257.793952 
L 168.585749 239.421843 
L 168.958952 249.090597 
L 169.332154 253.287358 
L 169.705356 259.093848 
L 170.078559 260.837947 
L 170.451761 267.974646 
L 170.824963 268.721625 
L 171.198165 262.992095 
L 171.571368 263.13249 
L 171.94457 259.900879 
L 172.317772 260.270592 
L 172.690975 264.62024 
L 173.064177 277.629826 
L 173.437379 270.999099 
L 174.556986 258.452174 
L 174.930188 251.242667 
L 175.303391 246.575428 
L 175.676593 255.848934 
L 176.049795 250.292181 
L 176.422998 248.792495 
L 176.7962 240.038677 
L 177.169402 245.423348 
L 177.542604 254.714268 
L 177.915807 244.246033 
L 178.289009 247.553703 
L 178.662211 256.621838 
L 179.035414 262.285689 
L 179.408616 254.699452 
L 179.781818 241.516274 
L 180.15502 244.392226 
L 180.901425 258.727706 
L 181.274627 251.026571 
L 181.64783 247.562499 
L 182.021032 242.121159 
L 182.394234 248.977905 
L 182.767437 237.376654 
L 183.140639 241.676492 
L 184.633448 265.406558 
L 185.00665 257.141325 
L 185.379853 256.519586 
L 185.753055 249.414452 
L 186.126257 236.20897 
L 186.499459 236.472 
L 186.872662 229.193367 
L 187.245864 230.70647 
L 187.619066 229.116979 
L 187.992269 217.057457 
L 188.365471 228.212561 
L 188.738673 231.182298 
L 189.111876 229.012256 
L 189.485078 231.774188 
L 189.85828 226.753188 
L 190.604685 237.411204 
L 190.977887 239.754474 
L 191.351089 225.761615 
L 192.097494 215.525116 
L 192.470696 222.344865 
L 192.843898 226.988888 
L 193.217101 227.566447 
L 193.590303 221.672545 
L 193.963505 221.780716 
L 194.336708 212.428613 
L 194.70991 214.05473 
L 195.083112 222.607366 
L 195.456314 222.131185 
L 195.829517 210.805178 
L 196.202719 219.282447 
L 196.575921 216.7318 
L 196.949124 216.601105 
L 197.322326 220.445002 
L 198.068731 222.809598 
L 198.441933 229.099907 
L 198.815135 225.42096 
L 199.188337 224.410806 
L 199.56154 212.15415 
L 199.934742 214.321822 
L 200.307944 219.05081 
L 200.681147 204.694831 
L 201.427551 218.434755 
L 201.800753 216.033771 
L 202.173956 217.113346 
L 202.547158 215.267179 
L 202.92036 221.316069 
L 203.666765 203.765209 
L 204.039967 202.359781 
L 204.41317 199.450984 
L 204.786372 205.047505 
L 205.159574 195.050531 
L 205.905979 198.964168 
L 206.279181 197.037274 
L 206.652383 204.131614 
L 207.398788 208.903584 
L 207.77199 194.449645 
L 208.518395 206.41164 
L 208.891597 194.876503 
L 209.264799 198.077019 
L 209.638002 199.675519 
L 210.011204 210.234404 
L 210.384406 203.855884 
L 210.757609 204.217982 
L 211.130811 197.375165 
L 211.504013 201.824636 
L 211.877215 209.222362 
L 212.250418 208.60126 
L 212.62362 211.576705 
L 212.996822 204.611851 
L 214.116429 222.087063 
L 214.489631 236.589849 
L 214.862834 240.389505 
L 215.236036 238.831891 
L 215.609238 236.681361 
L 215.982441 244.001844 
L 216.355643 243.909306 
L 216.728845 246.24169 
L 217.102048 254.625273 
L 217.47525 246.782671 
L 217.848452 234.784584 
L 218.221654 233.367617 
L 218.594857 225.939939 
L 218.968059 227.62536 
L 219.341261 223.29619 
L 219.714464 220.309541 
L 220.087666 221.500159 
L 220.460868 224.80823 
L 220.83407 217.663015 
L 221.207273 218.087165 
L 221.580475 217.845136 
L 221.953677 224.724863 
L 222.32688 225.972189 
L 222.700082 221.658054 
L 223.073284 227.378977 
L 223.446486 223.256012 
L 224.192891 208.693415 
L 224.566093 208.880258 
L 224.939296 212.749059 
L 225.312498 207.408869 
L 225.6857 212.908578 
L 226.058903 209.524159 
L 226.432105 208.25796 
L 226.805307 212.544098 
L 227.178509 209.708517 
L 227.551712 209.831871 
L 227.924914 206.401374 
L 228.298116 204.259133 
L 228.671319 214.741911 
L 229.044521 212.095656 
L 229.417723 220.203707 
L 229.790925 216.512751 
L 230.164128 208.567302 
L 230.53733 207.567572 
L 230.910532 212.122894 
L 231.283735 205.790872 
L 231.656937 209.321185 
L 232.403342 202.092831 
L 232.776544 203.725131 
L 233.149746 200.973169 
L 233.522948 205.293203 
L 233.896151 215.891515 
L 234.269353 213.179597 
L 234.642555 201.9039 
L 235.38896 195.620739 
L 235.762162 188.030546 
L 236.135364 190.079612 
L 236.508567 203.625273 
L 236.881769 209.696703 
L 237.254971 208.445194 
L 237.628174 203.486049 
L 238.001376 205.041642 
L 238.374578 195.805944 
L 238.747781 196.243733 
L 239.120983 190.687645 
L 239.494185 196.401115 
L 239.867387 208.439144 
L 240.24059 215.283043 
L 240.613792 213.163698 
L 240.986994 218.134598 
L 241.360197 213.072653 
L 241.733399 216.329753 
L 242.479803 208.842333 
L 242.853006 208.8407 
L 243.226208 206.654314 
L 243.59941 199.84494 
L 243.972613 213.568268 
L 244.345815 205.237815 
L 244.719017 204.436752 
L 245.092219 216.497571 
L 245.465422 216.444003 
L 246.211826 207.163903 
L 246.585029 209.439742 
L 246.958231 202.829107 
L 247.331433 201.83095 
L 247.704636 195.675024 
L 248.077838 201.137055 
L 248.45104 195.763957 
L 248.824242 195.273244 
L 249.197445 194.392906 
L 249.570647 197.113995 
L 249.943849 193.969993 
L 250.317052 195.679407 
L 250.690254 188.110645 
L 251.063456 195.386083 
L 251.436658 197.890863 
L 251.809861 185.896153 
L 252.183063 179.164559 
L 252.556265 178.689853 
L 252.929468 175.554283 
L 253.30267 169.201169 
L 253.675872 181.742855 
L 254.049075 178.430009 
L 254.422277 180.154586 
L 254.795479 175.753014 
L 255.168681 180.979798 
L 255.541884 182.407068 
L 255.915086 190.782086 
L 256.288288 185.758285 
L 256.661491 189.464817 
L 257.034693 191.100733 
L 257.781097 177.522413 
L 258.1543 176.892332 
L 258.527502 178.441161 
L 258.900704 174.78528 
L 259.273907 179.588446 
L 259.647109 178.753233 
L 260.020311 186.170195 
L 260.393514 184.454455 
L 260.766716 186.589259 
L 261.139918 191.171067 
L 261.886323 177.507369 
L 262.632727 174.223724 
L 263.00593 175.097296 
L 263.379132 166.904871 
L 263.752334 166.580748 
L 264.498739 173.520587 
L 264.871941 173.868691 
L 265.245143 176.804292 
L 265.618346 172.930853 
L 265.991548 172.642936 
L 266.36475 170.220197 
L 266.737952 175.939047 
L 267.111155 172.993051 
L 267.484357 174.051086 
L 268.230762 160.241938 
L 268.603964 162.492116 
L 268.977166 174.375108 
L 269.350369 172.358497 
L 269.723571 178.850725 
L 270.096773 181.755312 
L 270.469975 177.686089 
L 270.843178 168.633702 
L 271.21638 177.705528 
L 271.589582 174.794741 
L 271.962785 166.789604 
L 272.335987 166.149101 
L 272.709189 174.152196 
L 273.082391 168.825573 
L 273.455594 176.680351 
L 273.828796 175.32987 
L 274.575201 191.70653 
L 274.948403 193.094694 
L 275.321605 182.826108 
L 275.694808 178.180931 
L 276.06801 184.597734 
L 276.441212 184.104874 
L 276.814414 185.172048 
L 277.187617 189.225412 
L 277.560819 187.527184 
L 277.934021 178.050239 
L 278.307224 175.834559 
L 278.680426 167.216344 
L 279.053628 173.700304 
L 279.42683 177.054139 
L 279.800033 167.624631 
L 280.173235 174.324547 
L 280.546437 172.40581 
L 280.91964 163.998945 
L 281.292842 160.497106 
L 281.666044 158.151395 
L 282.039247 149.793035 
L 282.412449 154.101927 
L 282.785651 153.213573 
L 283.158853 140.905098 
L 283.905258 152.158384 
L 284.27846 147.774754 
L 285.024865 134.213295 
L 285.398067 128.102741 
L 285.771269 120.032683 
L 286.517674 126.00223 
L 286.890876 126.485838 
L 287.264079 134.114199 
L 287.637281 127.75341 
L 288.010483 134.84317 
L 288.383686 121.759216 
L 288.756888 128.419272 
L 289.13009 126.71373 
L 289.503292 117.845751 
L 289.876495 128.022203 
L 290.622899 136.867703 
L 290.996102 131.651272 
L 291.369304 131.498175 
L 291.742506 132.532967 
L 292.115708 136.197023 
L 292.488911 131.626704 
L 292.862113 124.048947 
L 293.235315 133.343535 
L 293.608518 131.101347 
L 293.98172 126.212661 
L 294.354922 134.044814 
L 294.728124 147.992112 
L 295.101327 150.960707 
L 295.474529 158.020853 
L 295.847731 152.015099 
L 296.220934 139.501963 
L 296.594136 136.21479 
L 296.967338 147.222701 
L 297.340541 140.082096 
L 297.713743 141.763469 
L 298.086945 151.446736 
L 298.460147 155.258835 
L 298.83335 154.714544 
L 299.206552 156.629347 
L 299.579754 157.020562 
L 299.952957 156.484287 
L 300.326159 150.319372 
L 300.699361 156.215393 
L 301.072563 157.75667 
L 301.445766 152.07146 
L 301.818968 158.469337 
L 302.19217 158.313215 
L 302.565373 154.633016 
L 302.938575 157.417421 
L 303.311777 149.535965 
L 303.68498 135.73434 
L 304.058182 139.77198 
L 304.431384 139.262692 
L 304.804586 144.588758 
L 305.177789 145.118216 
L 305.550991 138.839036 
L 305.924193 140.56038 
L 306.297396 151.115399 
L 306.670598 145.234032 
L 307.0438 152.431576 
L 307.790205 154.610232 
L 308.163407 154.547717 
L 308.536609 147.172911 
L 309.283014 162.1672 
L 309.656216 150.04521 
L 310.029419 148.067928 
L 310.402621 147.467834 
L 311.149025 161.469262 
L 311.522228 157.36237 
L 311.89543 155.401092 
L 312.268632 155.271734 
L 312.641835 157.61531 
L 313.388239 151.547267 
L 313.761441 158.790979 
L 314.134644 162.64796 
L 314.507846 157.229113 
L 314.881048 159.189329 
L 315.254251 152.270385 
L 315.627453 149.915431 
L 316.000655 150.073129 
L 316.373857 141.879766 
L 316.74706 145.089243 
L 317.120262 143.707077 
L 317.493464 141.670728 
L 317.866667 150.573791 
L 318.613071 158.05105 
L 318.986274 155.803652 
L 319.359476 160.813681 
L 319.732678 148.467538 
L 320.10588 147.884688 
L 320.479083 153.533827 
L 320.852285 150.033347 
L 321.225487 149.937731 
L 321.59869 150.391032 
L 321.971892 146.43124 
L 322.345094 145.764511 
L 322.718296 157.190318 
L 323.464701 170.574591 
L 323.837903 158.971018 
L 324.211106 162.989206 
L 324.584308 163.641059 
L 324.95751 163.564588 
L 325.330713 168.184316 
L 325.703915 163.810231 
L 326.077117 155.128553 
L 326.450319 150.393059 
L 327.196724 161.44287 
L 327.569926 161.065209 
L 327.943129 163.429994 
L 328.316331 153.336717 
L 328.689533 152.542398 
L 329.062735 144.000096 
L 329.435938 145.992308 
L 329.80914 132.753816 
L 330.182342 125.03085 
L 330.555545 127.252656 
L 330.928747 135.802583 
L 331.301949 138.879257 
L 332.048354 123.753723 
L 332.421556 132.081232 
L 332.794758 127.071631 
L 333.167961 134.688336 
L 333.541163 128.845976 
L 333.914365 125.20072 
L 334.287568 118.999279 
L 335.033972 133.475273 
L 335.407174 129.760712 
L 335.780377 127.789537 
L 336.153579 123.200611 
L 336.526781 128.463843 
L 336.899984 129.804547 
L 337.273186 121.355281 
L 337.646388 125.563647 
L 338.01959 111.728067 
L 338.392793 111.346096 
L 338.765995 113.741676 
L 339.139197 112.533149 
L 339.5124 119.755169 
L 339.885602 111.734914 
L 340.258804 111.827478 
L 340.632007 120.398867 
L 341.005209 117.765002 
L 341.378411 117.702585 
L 341.751613 131.740063 
L 342.124816 123.939956 
L 342.87122 134.606139 
L 343.244423 121.316106 
L 343.617625 117.533158 
L 343.990827 110.208963 
L 344.364029 110.196258 
L 344.737232 112.571498 
L 345.110434 103.580734 
L 345.483636 102.840333 
L 345.856839 96.978137 
L 346.603243 93.382177 
L 346.976446 100.572325 
L 347.349648 93.468199 
L 347.72285 98.801972 
L 348.096052 91.063793 
L 348.469255 76.732773 
L 348.842457 71.863901 
L 349.215659 71.596329 
L 349.588862 69.973714 
L 349.962064 70.017299 
L 350.335266 82.825223 
L 350.708468 88.264964 
L 351.081671 86.90484 
L 351.828075 99.291626 
L 352.201278 100.546663 
L 352.57448 98.426578 
L 352.947682 98.448588 
L 353.320885 105.004171 
L 353.694087 99.006087 
L 354.440491 84.637846 
L 354.813694 97.626898 
L 355.933301 82.383984 
L 356.306503 79.728066 
L 356.679705 72.047683 
L 357.42611 64.410591 
L 357.799312 57.32471 
L 358.172514 55.466494 
L 358.545717 41.977812 
L 358.918919 51.875082 
L 359.292121 49.922505 
L 359.665324 56.148079 
L 360.038526 49.675994 
L 360.411728 48.29277 
L 361.158133 31.5027 
L 361.531335 45.855928 
L 361.904537 33.930799 
L 362.27774 43.311203 
L 362.650942 39.962534 
L 363.024144 44.79583 
L 363.397346 52.795838 
L 363.770549 53.718254 
L 364.143751 54.217032 
L 364.516953 56.10035 
L 364.890156 42.435566 
L 365.263358 45.872515 
L 365.63656 45.983567 
L 366.009762 33.433469 
L 366.382965 32.879567 
L 366.756167 37.018181 
L 367.129369 31.387475 
L 367.502572 39.498445 
L 368.248976 24.663273 
L 368.622179 38.177865 
L 368.995381 27.062065 
L 369.368583 32.344992 
L 369.741785 34.397984 
L 370.114988 38.479106 
L 370.48819 45.374288 
L 370.861392 40.658187 
L 371.234595 40.357438 
L 371.607797 35.678194 
L 372.354201 41.925685 
L 372.727404 40.648328 
L 373.100606 36.76732 
L 373.473808 49.923129 
L 373.847011 54.354369 
L 374.220213 56.034909 
L 374.593415 64.975989 
L 374.966618 64.081706 
L 375.33982 63.543848 
L 375.713022 61.015198 
L 376.459427 58.76392 
L 376.832629 65.223989 
L 377.205831 60.870486 
L 377.579034 66.591673 
L 377.952236 67.384697 
L 378.325438 70.389777 
L 378.69864 66.147601 
L 379.071843 72.978688 
L 379.445045 71.882097 
L 379.818247 74.775268 
L 380.19145 84.883131 
L 380.564652 76.726857 
L 380.937854 78.678506 
L 381.311057 67.568612 
L 382.057461 71.475769 
L 382.430663 78.067945 
L 382.803866 79.468784 
L 383.177068 83.905509 
L 383.55027 71.340704 
L 383.923473 70.717591 
L 384.296675 82.131648 
L 384.669877 87.575579 
L 385.043079 78.943895 
L 385.416282 82.754359 
L 385.789484 80.207386 
L 386.162686 84.380771 
L 386.535889 84.719161 
L 386.909091 81.798319 
L 387.282293 82.60853 
L 387.655495 75.542623 
L 388.028698 80.412384 
L 388.4019 74.440937 
L 388.775102 81.63645 
L 389.148305 74.191124 
L 389.521507 87.515791 
L 389.894709 75.742596 
L 390.267912 78.593287 
L 390.641114 72.036957 
L 391.014316 73.683954 
L 391.387518 82.19442 
L 391.760721 71.87021 
L 392.507125 85.741337 
L 392.880328 87.100417 
L 393.25353 92.778375 
L 393.626732 92.135348 
L 393.999934 88.809861 
L 394.746339 96.888484 
L 395.119541 89.259736 
L 395.865946 87.650043 
L 396.239148 90.420193 
L 396.612351 91.256587 
L 396.985553 90.984497 
L 397.358755 96.436655 
L 397.731957 111.066467 
L 398.10516 104.914369 
L 398.478362 103.529066 
L 398.851564 113.143772 
L 399.224767 113.254562 
L 399.597969 116.444192 
L 399.971171 116.354697 
L 400.717576 129.029304 
L 401.090778 126.736832 
L 401.46398 137.401581 
L 401.837183 134.053122 
L 402.210385 124.752863 
L 402.583587 122.483216 
L 402.95679 125.062607 
L 403.329992 120.727845 
L 404.076396 116.006347 
L 404.449599 117.192335 
L 404.822801 103.691356 
L 405.196003 98.182299 
L 405.569206 102.737294 
L 405.942408 103.416679 
L 406.31561 103.84976 
L 406.688812 96.109998 
L 407.062015 94.776976 
L 407.435217 98.854686 
L 407.808419 94.357601 
L 408.181622 83.107395 
L 408.554824 92.12673 
L 408.928026 97.511769 
L 409.301229 91.261617 
L 409.674431 91.921059 
L 410.047633 87.919709 
L 410.420835 100.344535 
L 410.794038 88.298738 
L 411.16724 86.094749 
L 411.540442 89.590052 
L 411.913645 102.894178 
L 412.286847 110.837523 
L 412.660049 107.353482 
L 413.033251 113.119742 
L 413.406454 107.696014 
L 413.779656 105.822395 
L 414.152858 114.111441 
L 414.526061 115.679236 
L 414.899263 118.270115 
L 415.272465 123.488536 
L 415.645667 123.942965 
L 416.01887 123.823824 
L 416.392072 132.604715 
L 416.765274 133.327469 
L 417.138477 148.0453 
L 417.511679 145.801039 
L 417.884881 154.259786 
L 418.258084 142.84867 
L 418.631286 149.192278 
L 419.004488 150.140958 
L 419.37769 163.780285 
L 419.750893 150.260267 
L 420.124095 143.954285 
L 420.497297 147.571157 
L 420.8705 141.387552 
L 421.243702 140.803624 
L 421.616904 137.456422 
L 421.990106 132.503031 
L 422.363309 138.982974 
L 422.736511 149.954208 
L 423.109713 156.351213 
L 423.856118 140.865842 
L 424.22932 154.587595 
L 424.975725 143.838569 
L 425.348927 136.413385 
L 425.722129 149.144979 
L 426.095332 140.468834 
L 426.468534 141.483248 
L 426.841736 138.627816 
L 427.214939 140.395474 
L 427.588141 139.76256 
L 427.961343 138.879471 
L 428.334545 138.58289 
L 428.334545 138.58289 
" style="fill:none;stroke:#1f77b4;stroke-linecap:square;stroke-width:1.5;"/>
   </g>
   <g id="patch_3">
    <path d="M 36.864 324.864 
L 36.864 10.368 
" style="fill:none;stroke:#000000;stroke-linecap:square;stroke-linejoin:miter;stroke-width:0.8;"/>
   </g>
   <g id="patch_4">
    <path d="M 446.976 324.864 
L 446.976 10.368 
" style="fill:none;stroke:#000000;stroke-linecap:square;stroke-linejoin:miter;stroke-width:0.8;"/>
   </g>
   <g id="patch_5">
    <path d="M 36.864 324.864 
L 446.976 324.864 
" style="fill:none;stroke:#000000;stroke-linecap:square;stroke-linejoin:miter;stroke-width:0.8;"/>
   </g>
   <g id="patch_6">
    <path d="M 36.864 10.368 
L 446.976 10.368 
" style="fill:none;stroke:#000000;stroke-linecap:square;stroke-linejoin:miter;stroke-width:0.8;"/>
   </g>
  </g>
 </g>
 <defs>
  <clipPath id="p9df9683933">
   <rect height="314.496" width="410.112" x="36.864" y="10.368"/>
  </clipPath>
 </defs>
</svg>
