<?xml version="1.0" encoding="utf-8" standalone="no"?>
<!DOCTYPE svg PUBLIC "-//W3C//DTD SVG 1.1//EN"
  "http://www.w3.org/Graphics/SVG/1.1/DTD/svg11.dtd">
<!-- Created with matplotlib (http://matplotlib.org/) -->
<svg height="345.6pt" version="1.1" viewBox="0 0 460.8 345.6" width="460.8pt" xmlns="http://www.w3.org/2000/svg" xmlns:xlink="http://www.w3.org/1999/xlink">
 <defs>
  <style type="text/css">
*{stroke-linecap:butt;stroke-linejoin:round;}
  </style>
 </defs>
 <g id="figure_1">
  <g id="patch_1">
   <path d="M 0 345.6 
L 460.8 345.6 
L 460.8 0 
L 0 0 
z
" style="fill:#ffffff;"/>
  </g>
  <g id="axes_1">
   <g id="patch_2">
    <path d="M 36.864 324.864 
L 446.976 324.864 
L 446.976 10.368 
L 36.864 10.368 
z
" style="fill:#ffffff;"/>
   </g>
   <g id="matplotlib.axis_1">
    <g id="xtick_1">
     <g id="line2d_1">
      <path clip-path="url(#p103a204fff)" d="M 55.505455 324.864 
L 55.505455 10.368 
" style="fill:none;stroke:#b0b0b0;stroke-dasharray:2.96,1.28;stroke-dashoffset:0;stroke-width:0.8;"/>
     </g>
     <g id="line2d_2">
      <defs>
       <path d="M 0 0 
L 0 3.5 
" id="md288804b6f" style="stroke:#000000;stroke-width:0.8;"/>
      </defs>
      <g>
       <use style="stroke:#000000;stroke-width:0.8;" x="55.505455" xlink:href="#md288804b6f" y="324.864"/>
      </g>
     </g>
     <g id="text_1">
      <!-- 0 -->
      <defs>
       <path d="M 31.78125 66.40625 
Q 24.171875 66.40625 20.328125 58.90625 
Q 16.5 51.421875 16.5 36.375 
Q 16.5 21.390625 20.328125 13.890625 
Q 24.171875 6.390625 31.78125 6.390625 
Q 39.453125 6.390625 43.28125 13.890625 
Q 47.125 21.390625 47.125 36.375 
Q 47.125 51.421875 43.28125 58.90625 
Q 39.453125 66.40625 31.78125 66.40625 
z
M 31.78125 74.21875 
Q 44.046875 74.21875 50.515625 64.515625 
Q 56.984375 54.828125 56.984375 36.375 
Q 56.984375 17.96875 50.515625 8.265625 
Q 44.046875 -1.421875 31.78125 -1.421875 
Q 19.53125 -1.421875 13.0625 8.265625 
Q 6.59375 17.96875 6.59375 36.375 
Q 6.59375 54.828125 13.0625 64.515625 
Q 19.53125 74.21875 31.78125 74.21875 
z
" id="DejaVuSans-30"/>
      </defs>
      <g transform="translate(52.324205 339.462437)scale(0.1 -0.1)">
       <use xlink:href="#DejaVuSans-30"/>
      </g>
     </g>
    </g>
    <g id="xtick_2">
     <g id="line2d_3">
      <path clip-path="url(#p103a204fff)" d="M 130.220703 324.864 
L 130.220703 10.368 
" style="fill:none;stroke:#b0b0b0;stroke-dasharray:2.96,1.28;stroke-dashoffset:0;stroke-width:0.8;"/>
     </g>
     <g id="line2d_4">
      <g>
       <use style="stroke:#000000;stroke-width:0.8;" x="130.220703" xlink:href="#md288804b6f" y="324.864"/>
      </g>
     </g>
     <g id="text_2">
      <!-- 200 -->
      <defs>
       <path d="M 19.1875 8.296875 
L 53.609375 8.296875 
L 53.609375 0 
L 7.328125 0 
L 7.328125 8.296875 
Q 12.9375 14.109375 22.625 23.890625 
Q 32.328125 33.6875 34.8125 36.53125 
Q 39.546875 41.84375 41.421875 45.53125 
Q 43.3125 49.21875 43.3125 52.78125 
Q 43.3125 58.59375 39.234375 62.25 
Q 35.15625 65.921875 28.609375 65.921875 
Q 23.96875 65.921875 18.8125 64.3125 
Q 13.671875 62.703125 7.8125 59.421875 
L 7.8125 69.390625 
Q 13.765625 71.78125 18.9375 73 
Q 24.125 74.21875 28.421875 74.21875 
Q 39.75 74.21875 46.484375 68.546875 
Q 53.21875 62.890625 53.21875 53.421875 
Q 53.21875 48.921875 51.53125 44.890625 
Q 49.859375 40.875 45.40625 35.40625 
Q 44.1875 33.984375 37.640625 27.21875 
Q 31.109375 20.453125 19.1875 8.296875 
z
" id="DejaVuSans-32"/>
      </defs>
      <g transform="translate(120.676953 339.462437)scale(0.1 -0.1)">
       <use xlink:href="#DejaVuSans-32"/>
       <use x="63.623047" xlink:href="#DejaVuSans-30"/>
       <use x="127.246094" xlink:href="#DejaVuSans-30"/>
      </g>
     </g>
    </g>
    <g id="xtick_3">
     <g id="line2d_5">
      <path clip-path="url(#p103a204fff)" d="M 204.935952 324.864 
L 204.935952 10.368 
" style="fill:none;stroke:#b0b0b0;stroke-dasharray:2.96,1.28;stroke-dashoffset:0;stroke-width:0.8;"/>
     </g>
     <g id="line2d_6">
      <g>
       <use style="stroke:#000000;stroke-width:0.8;" x="204.935952" xlink:href="#md288804b6f" y="324.864"/>
      </g>
     </g>
     <g id="text_3">
      <!-- 400 -->
      <defs>
       <path d="M 37.796875 64.3125 
L 12.890625 25.390625 
L 37.796875 25.390625 
z
M 35.203125 72.90625 
L 47.609375 72.90625 
L 47.609375 25.390625 
L 58.015625 25.390625 
L 58.015625 17.1875 
L 47.609375 17.1875 
L 47.609375 0 
L 37.796875 0 
L 37.796875 17.1875 
L 4.890625 17.1875 
L 4.890625 26.703125 
z
" id="DejaVuSans-34"/>
      </defs>
      <g transform="translate(195.392202 339.462437)scale(0.1 -0.1)">
       <use xlink:href="#DejaVuSans-34"/>
       <use x="63.623047" xlink:href="#DejaVuSans-30"/>
       <use x="127.246094" xlink:href="#DejaVuSans-30"/>
      </g>
     </g>
    </g>
    <g id="xtick_4">
     <g id="line2d_7">
      <path clip-path="url(#p103a204fff)" d="M 279.651201 324.864 
L 279.651201 10.368 
" style="fill:none;stroke:#b0b0b0;stroke-dasharray:2.96,1.28;stroke-dashoffset:0;stroke-width:0.8;"/>
     </g>
     <g id="line2d_8">
      <g>
       <use style="stroke:#000000;stroke-width:0.8;" x="279.651201" xlink:href="#md288804b6f" y="324.864"/>
      </g>
     </g>
     <g id="text_4">
      <!-- 600 -->
      <defs>
       <path d="M 33.015625 40.375 
Q 26.375 40.375 22.484375 35.828125 
Q 18.609375 31.296875 18.609375 23.390625 
Q 18.609375 15.53125 22.484375 10.953125 
Q 26.375 6.390625 33.015625 6.390625 
Q 39.65625 6.390625 43.53125 10.953125 
Q 47.40625 15.53125 47.40625 23.390625 
Q 47.40625 31.296875 43.53125 35.828125 
Q 39.65625 40.375 33.015625 40.375 
z
M 52.59375 71.296875 
L 52.59375 62.3125 
Q 48.875 64.0625 45.09375 64.984375 
Q 41.3125 65.921875 37.59375 65.921875 
Q 27.828125 65.921875 22.671875 59.328125 
Q 17.53125 52.734375 16.796875 39.40625 
Q 19.671875 43.65625 24.015625 45.921875 
Q 28.375 48.1875 33.59375 48.1875 
Q 44.578125 48.1875 50.953125 41.515625 
Q 57.328125 34.859375 57.328125 23.390625 
Q 57.328125 12.15625 50.6875 5.359375 
Q 44.046875 -1.421875 33.015625 -1.421875 
Q 20.359375 -1.421875 13.671875 8.265625 
Q 6.984375 17.96875 6.984375 36.375 
Q 6.984375 53.65625 15.1875 63.9375 
Q 23.390625 74.21875 37.203125 74.21875 
Q 40.921875 74.21875 44.703125 73.484375 
Q 48.484375 72.75 52.59375 71.296875 
z
" id="DejaVuSans-36"/>
      </defs>
      <g transform="translate(270.107451 339.462437)scale(0.1 -0.1)">
       <use xlink:href="#DejaVuSans-36"/>
       <use x="63.623047" xlink:href="#DejaVuSans-30"/>
       <use x="127.246094" xlink:href="#DejaVuSans-30"/>
      </g>
     </g>
    </g>
    <g id="xtick_5">
     <g id="line2d_9">
      <path clip-path="url(#p103a204fff)" d="M 354.366449 324.864 
L 354.366449 10.368 
" style="fill:none;stroke:#b0b0b0;stroke-dasharray:2.96,1.28;stroke-dashoffset:0;stroke-width:0.8;"/>
     </g>
     <g id="line2d_10">
      <g>
       <use style="stroke:#000000;stroke-width:0.8;" x="354.366449" xlink:href="#md288804b6f" y="324.864"/>
      </g>
     </g>
     <g id="text_5">
      <!-- 800 -->
      <defs>
       <path d="M 31.78125 34.625 
Q 24.75 34.625 20.71875 30.859375 
Q 16.703125 27.09375 16.703125 20.515625 
Q 16.703125 13.921875 20.71875 10.15625 
Q 24.75 6.390625 31.78125 6.390625 
Q 38.8125 6.390625 42.859375 10.171875 
Q 46.921875 13.96875 46.921875 20.515625 
Q 46.921875 27.09375 42.890625 30.859375 
Q 38.875 34.625 31.78125 34.625 
z
M 21.921875 38.8125 
Q 15.578125 40.375 12.03125 44.71875 
Q 8.5 49.078125 8.5 55.328125 
Q 8.5 64.0625 14.71875 69.140625 
Q 20.953125 74.21875 31.78125 74.21875 
Q 42.671875 74.21875 48.875 69.140625 
Q 55.078125 64.0625 55.078125 55.328125 
Q 55.078125 49.078125 51.53125 44.71875 
Q 48 40.375 41.703125 38.8125 
Q 48.828125 37.15625 52.796875 32.3125 
Q 56.78125 27.484375 56.78125 20.515625 
Q 56.78125 9.90625 50.3125 4.234375 
Q 43.84375 -1.421875 31.78125 -1.421875 
Q 19.734375 -1.421875 13.25 4.234375 
Q 6.78125 9.90625 6.78125 20.515625 
Q 6.78125 27.484375 10.78125 32.3125 
Q 14.796875 37.15625 21.921875 38.8125 
z
M 18.3125 54.390625 
Q 18.3125 48.734375 21.84375 45.5625 
Q 25.390625 42.390625 31.78125 42.390625 
Q 38.140625 42.390625 41.71875 45.5625 
Q 45.3125 48.734375 45.3125 54.390625 
Q 45.3125 60.0625 41.71875 63.234375 
Q 38.140625 66.40625 31.78125 66.40625 
Q 25.390625 66.40625 21.84375 63.234375 
Q 18.3125 60.0625 18.3125 54.390625 
z
" id="DejaVuSans-38"/>
      </defs>
      <g transform="translate(344.822699 339.462437)scale(0.1 -0.1)">
       <use xlink:href="#DejaVuSans-38"/>
       <use x="63.623047" xlink:href="#DejaVuSans-30"/>
       <use x="127.246094" xlink:href="#DejaVuSans-30"/>
      </g>
     </g>
    </g>
    <g id="xtick_6">
     <g id="line2d_11">
      <path clip-path="url(#p103a204fff)" d="M 429.081698 324.864 
L 429.081698 10.368 
" style="fill:none;stroke:#b0b0b0;stroke-dasharray:2.96,1.28;stroke-dashoffset:0;stroke-width:0.8;"/>
     </g>
     <g id="line2d_12">
      <g>
       <use style="stroke:#000000;stroke-width:0.8;" x="429.081698" xlink:href="#md288804b6f" y="324.864"/>
      </g>
     </g>
     <g id="text_6">
      <!-- 1000 -->
      <defs>
       <path d="M 12.40625 8.296875 
L 28.515625 8.296875 
L 28.515625 63.921875 
L 10.984375 60.40625 
L 10.984375 69.390625 
L 28.421875 72.90625 
L 38.28125 72.90625 
L 38.28125 8.296875 
L 54.390625 8.296875 
L 54.390625 0 
L 12.40625 0 
z
" id="DejaVuSans-31"/>
      </defs>
      <g transform="translate(416.356698 339.462437)scale(0.1 -0.1)">
       <use xlink:href="#DejaVuSans-31"/>
       <use x="63.623047" xlink:href="#DejaVuSans-30"/>
       <use x="127.246094" xlink:href="#DejaVuSans-30"/>
       <use x="190.869141" xlink:href="#DejaVuSans-30"/>
      </g>
     </g>
    </g>
   </g>
   <g id="matplotlib.axis_2">
    <g id="ytick_1">
     <g id="line2d_13">
      <path clip-path="url(#p103a204fff)" d="M 36.864 312.69663 
L 446.976 312.69663 
" style="fill:none;stroke:#b0b0b0;stroke-dasharray:2.96,1.28;stroke-dashoffset:0;stroke-width:0.8;"/>
     </g>
     <g id="line2d_14">
      <defs>
       <path d="M 0 0 
L -3.5 0 
" id="m6403ccc64f" style="stroke:#000000;stroke-width:0.8;"/>
      </defs>
      <g>
       <use style="stroke:#000000;stroke-width:0.8;" x="36.864" xlink:href="#m6403ccc64f" y="312.69663"/>
      </g>
     </g>
     <g id="text_7">
      <!-- 990 -->
      <defs>
       <path d="M 10.984375 1.515625 
L 10.984375 10.5 
Q 14.703125 8.734375 18.5 7.8125 
Q 22.3125 6.890625 25.984375 6.890625 
Q 35.75 6.890625 40.890625 13.453125 
Q 46.046875 20.015625 46.78125 33.40625 
Q 43.953125 29.203125 39.59375 26.953125 
Q 35.25 24.703125 29.984375 24.703125 
Q 19.046875 24.703125 12.671875 31.3125 
Q 6.296875 37.9375 6.296875 49.421875 
Q 6.296875 60.640625 12.9375 67.421875 
Q 19.578125 74.21875 30.609375 74.21875 
Q 43.265625 74.21875 49.921875 64.515625 
Q 56.59375 54.828125 56.59375 36.375 
Q 56.59375 19.140625 48.40625 8.859375 
Q 40.234375 -1.421875 26.421875 -1.421875 
Q 22.703125 -1.421875 18.890625 -0.6875 
Q 15.09375 0.046875 10.984375 1.515625 
z
M 30.609375 32.421875 
Q 37.25 32.421875 41.125 36.953125 
Q 45.015625 41.5 45.015625 49.421875 
Q 45.015625 57.28125 41.125 61.84375 
Q 37.25 66.40625 30.609375 66.40625 
Q 23.96875 66.40625 20.09375 61.84375 
Q 16.21875 57.28125 16.21875 49.421875 
Q 16.21875 41.5 20.09375 36.953125 
Q 23.96875 32.421875 30.609375 32.421875 
z
" id="DejaVuSans-39"/>
      </defs>
      <g transform="translate(10.7765 316.495848)scale(0.1 -0.1)">
       <use xlink:href="#DejaVuSans-39"/>
       <use x="63.623047" xlink:href="#DejaVuSans-39"/>
       <use x="127.246094" xlink:href="#DejaVuSans-30"/>
      </g>
     </g>
    </g>
    <g id="ytick_2">
     <g id="line2d_15">
      <path clip-path="url(#p103a204fff)" d="M 36.864 250.827746 
L 446.976 250.827746 
" style="fill:none;stroke:#b0b0b0;stroke-dasharray:2.96,1.28;stroke-dashoffset:0;stroke-width:0.8;"/>
     </g>
     <g id="line2d_16">
      <g>
       <use style="stroke:#000000;stroke-width:0.8;" x="36.864" xlink:href="#m6403ccc64f" y="250.827746"/>
      </g>
     </g>
     <g id="text_8">
      <!-- 1000 -->
      <g transform="translate(4.414 254.626964)scale(0.1 -0.1)">
       <use xlink:href="#DejaVuSans-31"/>
       <use x="63.623047" xlink:href="#DejaVuSans-30"/>
       <use x="127.246094" xlink:href="#DejaVuSans-30"/>
       <use x="190.869141" xlink:href="#DejaVuSans-30"/>
      </g>
     </g>
    </g>
    <g id="ytick_3">
     <g id="line2d_17">
      <path clip-path="url(#p103a204fff)" d="M 36.864 188.958862 
L 446.976 188.958862 
" style="fill:none;stroke:#b0b0b0;stroke-dasharray:2.96,1.28;stroke-dashoffset:0;stroke-width:0.8;"/>
     </g>
     <g id="line2d_18">
      <g>
       <use style="stroke:#000000;stroke-width:0.8;" x="36.864" xlink:href="#m6403ccc64f" y="188.958862"/>
      </g>
     </g>
     <g id="text_9">
      <!-- 1010 -->
      <g transform="translate(4.414 192.758081)scale(0.1 -0.1)">
       <use xlink:href="#DejaVuSans-31"/>
       <use x="63.623047" xlink:href="#DejaVuSans-30"/>
       <use x="127.246094" xlink:href="#DejaVuSans-31"/>
       <use x="190.869141" xlink:href="#DejaVuSans-30"/>
      </g>
     </g>
    </g>
    <g id="ytick_4">
     <g id="line2d_19">
      <path clip-path="url(#p103a204fff)" d="M 36.864 127.089978 
L 446.976 127.089978 
" style="fill:none;stroke:#b0b0b0;stroke-dasharray:2.96,1.28;stroke-dashoffset:0;stroke-width:0.8;"/>
     </g>
     <g id="line2d_20">
      <g>
       <use style="stroke:#000000;stroke-width:0.8;" x="36.864" xlink:href="#m6403ccc64f" y="127.089978"/>
      </g>
     </g>
     <g id="text_10">
      <!-- 1020 -->
      <g transform="translate(4.414 130.889197)scale(0.1 -0.1)">
       <use xlink:href="#DejaVuSans-31"/>
       <use x="63.623047" xlink:href="#DejaVuSans-30"/>
       <use x="127.246094" xlink:href="#DejaVuSans-32"/>
       <use x="190.869141" xlink:href="#DejaVuSans-30"/>
      </g>
     </g>
    </g>
    <g id="ytick_5">
     <g id="line2d_21">
      <path clip-path="url(#p103a204fff)" d="M 36.864 65.221094 
L 446.976 65.221094 
" style="fill:none;stroke:#b0b0b0;stroke-dasharray:2.96,1.28;stroke-dashoffset:0;stroke-width:0.8;"/>
     </g>
     <g id="line2d_22">
      <g>
       <use style="stroke:#000000;stroke-width:0.8;" x="36.864" xlink:href="#m6403ccc64f" y="65.221094"/>
      </g>
     </g>
     <g id="text_11">
      <!-- 1030 -->
      <defs>
       <path d="M 40.578125 39.3125 
Q 47.65625 37.796875 51.625 33 
Q 55.609375 28.21875 55.609375 21.1875 
Q 55.609375 10.40625 48.1875 4.484375 
Q 40.765625 -1.421875 27.09375 -1.421875 
Q 22.515625 -1.421875 17.65625 -0.515625 
Q 12.796875 0.390625 7.625 2.203125 
L 7.625 11.71875 
Q 11.71875 9.328125 16.59375 8.109375 
Q 21.484375 6.890625 26.8125 6.890625 
Q 36.078125 6.890625 40.9375 10.546875 
Q 45.796875 14.203125 45.796875 21.1875 
Q 45.796875 27.640625 41.28125 31.265625 
Q 36.765625 34.90625 28.71875 34.90625 
L 20.21875 34.90625 
L 20.21875 43.015625 
L 29.109375 43.015625 
Q 36.375 43.015625 40.234375 45.921875 
Q 44.09375 48.828125 44.09375 54.296875 
Q 44.09375 59.90625 40.109375 62.90625 
Q 36.140625 65.921875 28.71875 65.921875 
Q 24.65625 65.921875 20.015625 65.03125 
Q 15.375 64.15625 9.8125 62.3125 
L 9.8125 71.09375 
Q 15.4375 72.65625 20.34375 73.4375 
Q 25.25 74.21875 29.59375 74.21875 
Q 40.828125 74.21875 47.359375 69.109375 
Q 53.90625 64.015625 53.90625 55.328125 
Q 53.90625 49.265625 50.4375 45.09375 
Q 46.96875 40.921875 40.578125 39.3125 
z
" id="DejaVuSans-33"/>
      </defs>
      <g transform="translate(4.414 69.020313)scale(0.1 -0.1)">
       <use xlink:href="#DejaVuSans-31"/>
       <use x="63.623047" xlink:href="#DejaVuSans-30"/>
       <use x="127.246094" xlink:href="#DejaVuSans-33"/>
       <use x="190.869141" xlink:href="#DejaVuSans-30"/>
      </g>
     </g>
    </g>
   </g>
   <g id="line2d_23">
    <path clip-path="url(#p103a204fff)" d="M 55.505455 261.362743 
L 55.879031 253.187613 
L 56.626183 241.722731 
L 56.99976 248.587899 
L 57.373336 249.386748 
L 57.746912 256.698061 
L 58.120488 254.085573 
L 58.494064 262.357238 
L 58.867641 262.881098 
L 59.241217 260.150786 
L 59.988369 266.011091 
L 60.361946 264.382722 
L 60.735522 258.48819 
L 61.109098 264.331682 
L 61.482674 263.699561 
L 61.856251 258.448841 
L 62.229827 256.672164 
L 62.603403 251.604154 
L 62.976979 262.311184 
L 63.350556 256.568954 
L 63.724132 258.196189 
L 64.097708 261.750746 
L 64.471284 255.539577 
L 64.844861 269.448564 
L 65.592013 258.950669 
L 65.965589 270.093842 
L 66.339166 257.680373 
L 66.712742 259.643687 
L 67.459894 258.736155 
L 67.833471 266.494483 
L 68.207047 277.092378 
L 68.580623 274.949779 
L 68.954199 263.962966 
L 69.327776 277.174246 
L 69.701352 282.626341 
L 70.074928 283.469954 
L 70.448504 275.633799 
L 70.822081 264.472489 
L 71.195657 267.556538 
L 71.569233 253.43801 
L 71.942809 247.411106 
L 72.689962 259.183309 
L 73.063538 263.74658 
L 73.437114 265.838731 
L 73.81069 257.978609 
L 74.184267 259.14109 
L 74.557843 250.791652 
L 74.931419 250.064007 
L 75.304995 254.410508 
L 75.678572 245.118769 
L 76.052148 244.431212 
L 76.425724 248.274955 
L 76.7993 237.551878 
L 77.172877 241.188685 
L 77.546453 239.620823 
L 78.667182 256.58957 
L 79.040758 251.133536 
L 79.414334 259.112177 
L 79.78791 260.546757 
L 80.161487 246.420634 
L 80.535063 248.608086 
L 81.282215 262.39401 
L 81.655792 256.81962 
L 82.029368 258.689542 
L 82.402944 259.540491 
L 82.77652 265.984599 
L 83.150097 265.751191 
L 83.523673 270.951487 
L 83.897249 271.824306 
L 84.270825 270.179673 
L 84.644402 277.015152 
L 85.017978 262.810709 
L 85.391554 256.710577 
L 85.76513 263.952516 
L 86.138707 259.42253 
L 86.512283 261.349025 
L 86.885859 252.268982 
L 87.259435 257.183059 
L 87.633011 250.518198 
L 88.006588 252.583891 
L 88.380164 251.692686 
L 88.75374 263.66123 
L 89.127316 263.916278 
L 89.500893 257.315735 
L 89.874469 268.939348 
L 90.248045 262.433941 
L 90.621621 266.027915 
L 90.995198 263.035855 
L 91.368774 254.282583 
L 91.74235 256.090306 
L 92.115926 259.720873 
L 92.489503 258.754513 
L 92.863079 263.815383 
L 93.236655 261.151544 
L 93.610231 265.77893 
L 93.983808 265.687872 
L 94.357384 263.05137 
L 94.73096 249.47575 
L 95.104536 259.425763 
L 95.478113 264.492284 
L 95.851689 266.056832 
L 96.598841 270.793097 
L 96.972418 266.366127 
L 97.345994 271.528721 
L 97.71957 279.695568 
L 98.093146 280.016338 
L 98.466723 280.026186 
L 98.840299 281.665412 
L 99.587451 286.681432 
L 99.961028 295.076073 
L 100.334604 288.878028 
L 100.70818 291.770157 
L 101.081756 290.875552 
L 101.455332 302.496555 
L 101.828909 301.376623 
L 102.202485 294.126628 
L 102.576061 296.529053 
L 102.949637 301.701947 
L 103.323214 310.100619 
L 103.69679 306.446804 
L 104.070366 306.108508 
L 104.443942 310.568727 
L 104.817519 297.096376 
L 105.191095 299.367406 
L 105.938247 284.72666 
L 106.311824 298.788709 
L 106.6854 295.129924 
L 107.058976 287.648772 
L 107.432552 292.964591 
L 107.806129 279.985085 
L 108.179705 278.050114 
L 108.553281 277.234895 
L 108.926857 275.573192 
L 109.300434 274.708601 
L 109.67401 277.356615 
L 110.047586 271.101597 
L 110.421162 278.431912 
L 110.794739 274.021151 
L 111.168315 282.846603 
L 111.541891 268.875058 
L 111.915467 275.129686 
L 112.289044 276.657473 
L 112.66262 266.801872 
L 113.036196 269.816917 
L 113.409772 255.450507 
L 114.156925 269.096372 
L 114.530501 275.793776 
L 114.904077 276.109402 
L 115.277653 273.137248 
L 115.65123 278.44729 
L 116.024806 286.905263 
L 116.398382 290.244229 
L 116.771958 280.766962 
L 117.145535 282.315662 
L 117.519111 282.047064 
L 117.892687 281.920124 
L 118.63984 271.472047 
L 119.013416 273.366305 
L 119.386992 274.167802 
L 120.507721 257.047946 
L 120.881297 268.448752 
L 121.254873 269.458487 
L 122.002026 254.452842 
L 122.375602 253.796447 
L 122.749178 251.553382 
L 123.122755 251.692892 
L 123.869907 241.516984 
L 124.243483 252.398122 
L 124.61706 252.120154 
L 125.737788 231.919048 
L 126.111365 242.782706 
L 126.484941 234.620408 
L 127.232093 247.011613 
L 127.60567 238.675293 
L 127.979246 240.715637 
L 128.352822 245.977366 
L 128.726398 243.432405 
L 129.099974 240.014816 
L 129.473551 242.894583 
L 130.220703 240.444685 
L 130.594279 232.129217 
L 130.967856 227.703418 
L 131.341432 230.883957 
L 131.715008 240.635223 
L 132.088584 234.406434 
L 132.462161 234.860733 
L 132.835737 241.356493 
L 133.582889 230.417317 
L 133.956466 238.051241 
L 134.330042 235.314077 
L 134.703618 243.745488 
L 135.077194 240.793263 
L 135.450771 242.676011 
L 135.824347 246.278214 
L 136.197923 244.589915 
L 136.571499 243.832236 
L 136.945076 237.984186 
L 137.318652 229.966828 
L 137.692228 237.492432 
L 138.065804 242.125345 
L 138.439381 232.86224 
L 138.812957 236.947346 
L 139.186533 227.493625 
L 139.560109 226.722658 
L 139.933686 219.170784 
L 140.307262 223.719891 
L 140.680838 219.445775 
L 141.054414 217.908918 
L 141.427991 217.111028 
L 141.801567 216.003273 
L 142.175143 209.910254 
L 143.295872 202.006657 
L 143.669448 209.998852 
L 144.4166 196.590516 
L 144.790177 201.043935 
L 145.163753 189.129399 
L 145.537329 188.939615 
L 145.910905 195.821694 
L 146.658058 181.59818 
L 147.031634 170.108988 
L 147.40521 171.310583 
L 147.778787 169.157027 
L 148.152363 172.255173 
L 148.525939 172.951814 
L 148.899515 179.648043 
L 149.273092 172.063727 
L 150.767397 206.545243 
L 151.140973 205.495019 
L 151.514549 210.305549 
L 151.888125 216.683983 
L 152.261702 225.989282 
L 152.635278 227.939162 
L 153.008854 240.091364 
L 153.38243 240.710186 
L 153.756007 249.724534 
L 154.503159 251.354255 
L 154.876735 264.860511 
L 155.250312 263.211965 
L 155.623888 265.989884 
L 155.997464 271.577563 
L 156.37104 265.392785 
L 156.744617 274.901458 
L 157.118193 269.125913 
L 157.491769 257.085912 
L 157.865345 256.878237 
L 158.238921 253.928502 
L 158.612498 260.135892 
L 158.986074 259.436201 
L 159.35965 264.385018 
L 159.733226 272.815801 
L 160.106803 258.708783 
L 160.480379 260.151744 
L 160.853955 274.284722 
L 161.227531 270.449324 
L 161.601108 273.218754 
L 161.974684 263.890767 
L 162.34826 273.758905 
L 162.721836 266.188648 
L 163.095413 275.775783 
L 163.468989 267.587133 
L 163.842565 273.944478 
L 164.216141 276.942188 
L 164.589718 263.424174 
L 164.963294 257.372403 
L 165.33687 260.831935 
L 165.710446 270.122084 
L 166.084023 263.542432 
L 166.457599 252.622293 
L 166.831175 256.660649 
L 167.204751 256.428087 
L 167.578328 257.793952 
L 168.32548 239.421843 
L 168.699056 249.090597 
L 169.072633 253.287358 
L 169.446209 259.093848 
L 169.819785 260.837947 
L 170.193361 267.974646 
L 170.566938 268.721625 
L 170.940514 262.992095 
L 171.31409 263.13249 
L 171.687666 259.900879 
L 172.061242 260.270592 
L 172.434819 264.62024 
L 172.808395 277.629826 
L 173.181971 270.999099 
L 174.3027 258.452174 
L 174.676276 251.242667 
L 175.049852 246.575428 
L 175.423429 255.848934 
L 175.797005 250.292181 
L 176.170581 248.792495 
L 176.544157 240.038677 
L 176.917734 245.423348 
L 177.29131 254.714268 
L 177.664886 244.246033 
L 178.038462 247.553703 
L 178.412039 256.621838 
L 178.785615 262.285689 
L 179.159191 254.699452 
L 179.532767 241.516274 
L 179.906344 244.392226 
L 180.653496 258.727706 
L 181.027072 251.026571 
L 181.400649 247.562499 
L 181.774225 242.121159 
L 182.147801 248.977905 
L 182.521377 237.376654 
L 182.894954 241.676492 
L 184.389259 265.406558 
L 184.762835 257.141325 
L 185.136411 256.519586 
L 185.509987 249.414452 
L 185.883563 236.20897 
L 186.25714 236.472 
L 186.630716 229.193367 
L 187.004292 230.70647 
L 187.377868 229.116979 
L 187.751445 217.057457 
L 188.125021 228.212561 
L 188.498597 231.182298 
L 188.872173 229.012256 
L 189.24575 231.774188 
L 189.619326 226.753188 
L 190.366478 237.411204 
L 190.740055 239.754474 
L 191.113631 225.761615 
L 191.860783 215.525116 
L 192.23436 222.344865 
L 192.607936 226.988888 
L 192.981512 227.566447 
L 193.355088 221.672545 
L 193.728665 221.780716 
L 194.102241 212.428613 
L 194.475817 214.05473 
L 194.849393 222.607366 
L 195.22297 222.131185 
L 195.596546 210.805178 
L 195.970122 219.282447 
L 196.343698 216.7318 
L 196.717275 216.601105 
L 197.090851 220.445002 
L 197.838003 222.809598 
L 198.21158 229.099907 
L 198.585156 225.42096 
L 198.958732 224.410806 
L 199.332308 212.15415 
L 199.705884 214.321822 
L 200.079461 219.05081 
L 200.453037 204.694831 
L 201.200189 218.434755 
L 201.573766 216.033771 
L 201.947342 217.113346 
L 202.320918 215.267179 
L 202.694494 221.316069 
L 203.441647 203.765209 
L 203.815223 202.359781 
L 204.188799 199.450984 
L 204.562376 205.047505 
L 204.935952 195.050531 
L 205.683104 198.964168 
L 206.056681 197.037274 
L 206.430257 204.131614 
L 207.177409 208.903584 
L 207.550986 194.449645 
L 208.298138 206.41164 
L 208.671714 194.876503 
L 209.045291 198.077019 
L 209.418867 199.675519 
L 209.792443 210.234404 
L 210.166019 203.855884 
L 210.539596 204.217982 
L 210.913172 197.375165 
L 211.286748 201.824636 
L 211.660324 209.222362 
L 212.033901 208.60126 
L 212.407477 211.576705 
L 212.781053 204.611851 
L 213.901782 222.087063 
L 214.275358 236.589849 
L 214.648934 240.389505 
L 215.02251 238.831891 
L 215.396087 236.681361 
L 215.769663 244.001844 
L 216.143239 243.909306 
L 216.516815 246.24169 
L 216.890392 254.625273 
L 217.263968 246.782671 
L 217.637544 234.784584 
L 218.01112 233.367617 
L 218.384697 225.939939 
L 218.758273 227.62536 
L 219.131849 223.29619 
L 219.505425 220.309541 
L 219.879002 221.500159 
L 220.252578 224.80823 
L 220.626154 217.663015 
L 220.99973 218.087165 
L 221.373307 217.845136 
L 221.746883 224.724863 
L 222.120459 225.972189 
L 222.494035 221.658054 
L 222.867612 227.378977 
L 223.241188 223.256012 
L 223.98834 208.693415 
L 224.361917 208.880258 
L 224.735493 212.749059 
L 225.109069 207.408869 
L 225.482645 212.908578 
L 225.856222 209.524159 
L 226.229798 208.25796 
L 226.603374 212.544098 
L 226.97695 209.708517 
L 227.350527 209.831871 
L 227.724103 206.401374 
L 228.097679 204.259133 
L 228.471255 214.741911 
L 228.844831 212.095656 
L 229.218408 220.203707 
L 229.591984 216.512751 
L 229.96556 208.567302 
L 230.339136 207.567572 
L 230.712713 212.122894 
L 231.086289 205.790872 
L 231.459865 209.321185 
L 232.207018 202.092831 
L 232.580594 203.725131 
L 232.95417 200.973169 
L 233.327746 205.293203 
L 233.701323 215.891515 
L 234.074899 213.179597 
L 234.448475 201.9039 
L 235.195628 195.620739 
L 235.569204 188.030546 
L 235.94278 190.079612 
L 236.316356 203.625273 
L 236.689933 209.696703 
L 237.063509 208.445194 
L 237.437085 203.486049 
L 237.810661 205.041642 
L 238.184238 195.805944 
L 238.557814 196.243733 
L 238.93139 190.687645 
L 239.304966 196.401115 
L 239.678543 208.439144 
L 240.052119 215.283043 
L 240.425695 213.163698 
L 240.799271 218.134598 
L 241.172848 213.072653 
L 241.546424 216.329753 
L 242.293576 208.842333 
L 242.667152 208.8407 
L 243.040729 206.654314 
L 243.414305 199.84494 
L 243.787881 213.568268 
L 244.161457 205.237815 
L 244.535034 204.436752 
L 244.90861 216.497571 
L 245.282186 216.444003 
L 246.029339 207.163903 
L 246.402915 209.439742 
L 246.776491 202.829107 
L 247.150067 201.83095 
L 247.523644 195.675024 
L 247.89722 201.137055 
L 248.270796 195.763957 
L 248.644372 195.273244 
L 249.017949 194.392906 
L 249.391525 197.113995 
L 249.765101 193.969993 
L 250.138677 195.679407 
L 250.512254 188.110645 
L 250.88583 195.386083 
L 251.259406 197.890863 
L 251.632982 185.896153 
L 252.006559 179.164559 
L 252.380135 178.689853 
L 252.753711 175.554283 
L 253.127287 169.201169 
L 253.500864 181.742855 
L 253.87444 178.430009 
L 254.248016 180.154586 
L 254.621592 175.753014 
L 254.995169 180.979798 
L 255.368745 182.407068 
L 255.742321 190.782086 
L 256.115897 185.758285 
L 256.489473 189.464817 
L 256.86305 191.100733 
L 257.610202 177.522413 
L 257.983778 176.892332 
L 258.357355 178.441161 
L 258.730931 174.78528 
L 259.104507 179.588446 
L 259.478083 178.753233 
L 259.85166 186.170195 
L 260.225236 184.454455 
L 260.598812 186.589259 
L 260.972388 191.171067 
L 261.719541 177.507369 
L 262.466693 174.223724 
L 262.84027 175.097296 
L 263.213846 166.904871 
L 263.587422 166.580748 
L 264.334575 173.520587 
L 264.708151 173.868691 
L 265.081727 176.804292 
L 265.455303 172.930853 
L 265.82888 172.642936 
L 266.202456 170.220197 
L 266.576032 175.939047 
L 266.949608 172.993051 
L 267.323185 174.051086 
L 268.070337 160.241938 
L 268.443913 162.492116 
L 268.81749 174.375108 
L 269.191066 172.358497 
L 269.564642 178.850725 
L 269.938218 181.755312 
L 270.311794 177.686089 
L 270.685371 168.633702 
L 271.058947 177.705528 
L 271.432523 174.794741 
L 271.806099 166.789604 
L 272.179676 166.149101 
L 272.553252 174.152196 
L 272.926828 168.825573 
L 273.300404 176.680351 
L 273.673981 175.32987 
L 274.421133 191.70653 
L 274.794709 193.094694 
L 275.168286 182.826108 
L 275.541862 178.180931 
L 275.915438 184.597734 
L 276.289014 184.104874 
L 276.662591 185.172048 
L 277.036167 189.225412 
L 277.409743 187.527184 
L 277.783319 178.050239 
L 278.156896 175.834559 
L 278.530472 167.216344 
L 278.904048 173.700304 
L 279.277624 177.054139 
L 279.651201 167.624631 
L 280.024777 174.324547 
L 280.398353 172.40581 
L 280.771929 163.998945 
L 281.145506 160.497106 
L 281.519082 158.151395 
L 281.892658 149.793035 
L 282.266234 154.101927 
L 282.639811 153.213573 
L 283.013387 140.905098 
L 283.760539 152.158384 
L 284.134116 147.774754 
L 284.881268 134.213295 
L 285.254844 128.102741 
L 285.62842 120.032683 
L 286.375573 126.00223 
L 286.749149 126.485838 
L 287.122725 134.114199 
L 287.496302 127.75341 
L 287.869878 134.84317 
L 288.243454 121.759216 
L 288.61703 128.419272 
L 288.990607 126.71373 
L 289.364183 117.845751 
L 289.737759 128.022203 
L 290.484912 136.867703 
L 290.858488 131.651272 
L 291.232064 131.498175 
L 291.60564 132.532967 
L 291.979217 136.197023 
L 292.352793 131.626704 
L 292.726369 124.048947 
L 293.099945 133.343535 
L 293.473522 131.101347 
L 293.847098 126.212661 
L 294.220674 134.044814 
L 294.59425 147.992112 
L 294.967827 150.960707 
L 295.341403 158.020853 
L 295.714979 152.015099 
L 296.088555 139.501963 
L 296.462132 136.21479 
L 296.835708 147.222701 
L 297.209284 140.082096 
L 297.58286 141.763469 
L 297.956437 151.446736 
L 298.330013 155.258835 
L 298.703589 154.714544 
L 299.077165 156.629347 
L 299.450741 157.020562 
L 299.824318 156.484287 
L 300.197894 150.319372 
L 300.57147 156.215393 
L 300.945046 157.75667 
L 301.318623 152.07146 
L 301.692199 158.469337 
L 302.065775 158.313215 
L 302.439351 154.633016 
L 302.812928 157.417421 
L 303.186504 149.535965 
L 303.56008 135.73434 
L 303.933656 139.77198 
L 304.307233 139.262692 
L 304.680809 144.588758 
L 305.054385 145.118216 
L 305.427961 138.839036 
L 305.801538 140.56038 
L 306.175114 151.115399 
L 306.54869 145.234032 
L 306.922266 152.431576 
L 307.669419 154.610232 
L 308.042995 154.547717 
L 308.416571 147.172911 
L 309.163724 162.1672 
L 309.5373 150.04521 
L 309.910876 148.067928 
L 310.284453 147.467834 
L 311.031605 161.469262 
L 311.405181 157.36237 
L 311.778758 155.401092 
L 312.152334 155.271734 
L 312.52591 157.61531 
L 313.273062 151.547267 
L 313.646639 158.790979 
L 314.020215 162.64796 
L 314.393791 157.229113 
L 314.767367 159.189329 
L 315.140944 152.270385 
L 315.51452 149.915431 
L 315.888096 150.073129 
L 316.261672 141.879766 
L 316.635249 145.089243 
L 317.008825 143.707077 
L 317.382401 141.670728 
L 317.755977 150.573791 
L 318.50313 158.05105 
L 318.876706 155.803652 
L 319.250282 160.813681 
L 319.623859 148.467538 
L 319.997435 147.884688 
L 320.371011 153.533827 
L 320.744587 150.033347 
L 321.118164 149.937731 
L 321.49174 150.391032 
L 321.865316 146.43124 
L 322.238892 145.764511 
L 322.612469 157.190318 
L 323.359621 170.574591 
L 323.733197 158.971018 
L 324.106774 162.989206 
L 324.48035 163.641059 
L 324.853926 163.564588 
L 325.227502 168.184316 
L 325.601079 163.810231 
L 325.974655 155.128553 
L 326.348231 150.393059 
L 327.095383 161.44287 
L 327.46896 161.065209 
L 327.842536 163.429994 
L 328.216112 153.336717 
L 328.589688 152.542398 
L 328.963265 144.000096 
L 329.336841 145.992308 
L 329.710417 132.753816 
L 330.083993 125.03085 
L 330.45757 127.252656 
L 330.831146 135.802583 
L 331.204722 138.879257 
L 331.951875 123.753723 
L 332.325451 132.081232 
L 332.699027 127.071631 
L 333.072603 134.688336 
L 333.44618 128.845976 
L 333.819756 125.20072 
L 334.193332 118.999279 
L 334.940485 133.475273 
L 335.314061 129.760712 
L 335.687637 127.789537 
L 336.061213 123.200611 
L 336.43479 128.463843 
L 336.808366 129.804547 
L 337.181942 121.355281 
L 337.555518 125.563647 
L 337.929095 111.728067 
L 338.302671 111.346096 
L 338.676247 113.741676 
L 339.049823 112.533149 
L 339.4234 119.755169 
L 339.796976 111.734914 
L 340.170552 111.827478 
L 340.544128 120.398867 
L 340.917704 117.765002 
L 341.291281 117.702585 
L 341.664857 131.740063 
L 342.038433 123.939956 
L 342.785586 134.606139 
L 343.159162 121.316106 
L 343.532738 117.533158 
L 343.906314 110.208963 
L 344.279891 110.196258 
L 344.653467 112.571498 
L 345.027043 103.580734 
L 345.400619 102.840333 
L 345.774196 96.978137 
L 346.521348 93.382177 
L 346.894924 100.572325 
L 347.268501 93.468199 
L 347.642077 98.801972 
L 348.015653 91.063793 
L 348.389229 76.732773 
L 348.762806 71.863901 
L 349.136382 71.596329 
L 349.509958 69.973714 
L 349.883534 70.017299 
L 350.257111 82.825223 
L 350.630687 88.264964 
L 351.004263 86.90484 
L 351.751416 99.291626 
L 352.124992 100.546663 
L 352.498568 98.426578 
L 352.872144 98.448588 
L 353.245721 105.004171 
L 353.619297 99.006087 
L 354.366449 84.637846 
L 354.740026 97.626898 
L 355.860754 82.383984 
L 356.23433 79.728066 
L 356.607907 72.047683 
L 357.355059 64.410591 
L 357.728635 57.32471 
L 358.102212 55.466494 
L 358.475788 41.977812 
L 358.849364 51.875082 
L 359.22294 49.922505 
L 359.596517 56.148079 
L 359.970093 49.675994 
L 360.343669 48.29277 
L 361.090822 31.5027 
L 361.464398 45.855928 
L 361.837974 33.930799 
L 362.21155 43.311203 
L 362.585127 39.962534 
L 362.958703 44.79583 
L 363.332279 52.795838 
L 363.705855 53.718254 
L 364.079432 54.217032 
L 364.453008 56.10035 
L 364.826584 42.435566 
L 365.20016 45.872515 
L 365.573737 45.983567 
L 365.947313 33.433469 
L 366.320889 32.879567 
L 366.694465 37.018181 
L 367.068042 31.387475 
L 367.441618 39.498445 
L 368.18877 24.663273 
L 368.562347 38.177865 
L 368.935923 27.062065 
L 369.309499 32.344992 
L 369.683075 34.397984 
L 370.056651 38.479106 
L 370.430228 45.374288 
L 370.803804 40.658187 
L 371.17738 40.357438 
L 371.550956 35.678194 
L 372.298109 41.925685 
L 372.671685 40.648328 
L 373.045261 36.76732 
L 373.418838 49.923129 
L 373.792414 54.354369 
L 374.16599 56.034909 
L 374.539566 64.975989 
L 374.913143 64.081706 
L 375.286719 63.543848 
L 375.660295 61.015198 
L 376.407448 58.76392 
L 376.781024 65.223989 
L 377.1546 60.870486 
L 377.528176 66.591673 
L 377.901753 67.384697 
L 378.275329 70.389777 
L 378.648905 66.147601 
L 379.022481 72.978688 
L 379.396058 71.882097 
L 379.769634 74.775268 
L 380.14321 84.883131 
L 380.516786 76.726857 
L 380.890363 78.678506 
L 381.263939 67.568612 
L 382.011091 71.475769 
L 382.384668 78.067945 
L 382.758244 79.468784 
L 383.13182 83.905509 
L 383.505396 71.340704 
L 383.878972 70.717591 
L 384.252549 82.131648 
L 384.626125 87.575579 
L 384.999701 78.943895 
L 385.373277 82.754359 
L 385.746854 80.207386 
L 386.12043 84.380771 
L 386.494006 84.719161 
L 386.867582 81.798319 
L 387.241159 82.60853 
L 387.614735 75.542623 
L 387.988311 80.412384 
L 388.361887 74.440937 
L 388.735464 81.63645 
L 389.10904 74.191124 
L 389.482616 87.515791 
L 389.856192 75.742596 
L 390.229769 78.593287 
L 390.603345 72.036957 
L 390.976921 73.683954 
L 391.350497 82.19442 
L 391.724074 71.87021 
L 392.471226 85.741337 
L 392.844802 87.100417 
L 393.218379 92.778375 
L 393.591955 92.135348 
L 393.965531 88.809861 
L 394.712684 96.888484 
L 395.08626 89.259736 
L 395.833412 87.650043 
L 396.206989 90.420193 
L 396.580565 91.256587 
L 396.954141 90.984497 
L 397.327717 96.436655 
L 397.701293 111.066467 
L 398.07487 104.914369 
L 398.448446 103.529066 
L 398.822022 113.143772 
L 399.195598 113.254562 
L 399.569175 116.444192 
L 399.942751 116.354697 
L 400.689903 129.029304 
L 401.06348 126.736832 
L 401.437056 137.401581 
L 401.810632 134.053122 
L 402.184208 124.752863 
L 402.557785 122.483216 
L 402.931361 125.062607 
L 403.304937 120.727845 
L 404.05209 116.006347 
L 404.425666 117.192335 
L 404.799242 103.691356 
L 405.172818 98.182299 
L 405.546395 102.737294 
L 405.919971 103.416679 
L 406.293547 103.84976 
L 406.667123 96.109998 
L 407.0407 94.776976 
L 407.414276 98.854686 
L 407.787852 94.357601 
L 408.161428 83.107395 
L 408.535005 92.12673 
L 408.908581 97.511769 
L 409.282157 91.261617 
L 409.655733 91.921059 
L 410.02931 87.919709 
L 410.402886 100.344535 
L 410.776462 88.298738 
L 411.150038 86.094749 
L 411.523615 89.590052 
L 411.897191 102.894178 
L 412.270767 110.837523 
L 412.644343 107.353482 
L 413.017919 113.119742 
L 413.391496 107.696014 
L 413.765072 105.822395 
L 414.138648 114.111441 
L 414.512224 115.679236 
L 414.885801 118.270115 
L 415.259377 123.488536 
L 415.632953 123.942965 
L 416.006529 123.823824 
L 416.380106 132.604715 
L 416.753682 133.327469 
L 417.127258 148.0453 
L 417.500834 145.801039 
L 417.874411 154.259786 
L 418.247987 142.84867 
L 418.621563 149.192278 
L 418.995139 150.140958 
L 419.368716 163.780285 
L 419.742292 150.260267 
L 420.115868 143.954285 
L 420.489444 147.571157 
L 420.863021 141.387552 
L 421.236597 140.803624 
L 421.610173 137.456422 
L 421.983749 132.503031 
L 422.357326 138.982974 
L 422.730902 149.954208 
L 423.104478 156.351213 
L 423.851631 140.865842 
L 424.225207 154.587595 
L 424.972359 143.838569 
L 425.345936 136.413385 
L 425.719512 149.144979 
L 426.093088 140.468834 
L 426.466664 141.483248 
L 426.84024 138.627816 
L 427.213817 140.395474 
L 427.587393 139.76256 
L 427.960969 138.879471 
L 428.334545 138.58289 
L 428.334545 138.58289 
" style="fill:none;stroke:#1f77b4;stroke-linecap:square;stroke-width:1.5;"/>
   </g>
   <g id="patch_3">
    <path d="M 36.864 324.864 
L 36.864 10.368 
" style="fill:none;stroke:#000000;stroke-linecap:square;stroke-linejoin:miter;stroke-width:0.8;"/>
   </g>
   <g id="patch_4">
    <path d="M 446.976 324.864 
L 446.976 10.368 
" style="fill:none;stroke:#000000;stroke-linecap:square;stroke-linejoin:miter;stroke-width:0.8;"/>
   </g>
   <g id="patch_5">
    <path d="M 36.864 324.864 
L 446.976 324.864 
" style="fill:none;stroke:#000000;stroke-linecap:square;stroke-linejoin:miter;stroke-width:0.8;"/>
   </g>
   <g id="patch_6">
    <path d="M 36.864 10.368 
L 446.976 10.368 
" style="fill:none;stroke:#000000;stroke-linecap:square;stroke-linejoin:miter;stroke-width:0.8;"/>
   </g>
  </g>
 </g>
 <defs>
  <clipPath id="p103a204fff">
   <rect height="314.496" width="410.112" x="36.864" y="10.368"/>
  </clipPath>
 </defs>
</svg>
